<?xml version="1.0" encoding="UTF-8"?>
<!DOCTYPE svg PUBLIC "-//W3C//DTD SVG 1.1//EN" "http://www.w3.org/Graphics/SVG/1.1/DTD/svg11.dtd">
<svg xmlns="http://www.w3.org/2000/svg" version="1.1" width="239px" height="239px"
  style="shape-rendering:geometricPrecision; text-rendering:geometricPrecision; image-rendering:optimizeQuality; fill-rule:evenodd; clip-rule:evenodd"
  xmlns:xlink="http://www.w3.org/1999/xlink">
  <g>
    <path style="opacity:1" fill="#f5f5f5"
      d="M 131.5,123.5 C 128.232,122.178 124.565,121.511 120.5,121.5C 116.651,121.501 112.984,121.835 109.5,122.5C 103.082,123.117 98.2487,126.117 95,131.5C 93.5712,142.088 93.0712,152.755 93.5,163.5C 88.8333,163.5 84.1667,163.5 79.5,163.5C 79.5,132.833 79.5,102.167 79.5,71.5C 84.1667,71.5 88.8333,71.5 93.5,71.5C 93.1675,84.85 93.5008,98.1833 94.5,111.5C 99.0044,109.707 103.671,108.541 108.5,108C 116.159,107.5 123.826,107.334 131.5,107.5C 131.604,95.7617 131.271,84.2617 130.5,73C 135.309,71.5585 140.309,71.0585 145.5,71.5C 145.5,83.5 145.5,95.5 145.5,107.5C 148.941,107.699 152.274,107.199 155.5,106C 158.944,104.198 162.111,102.031 165,99.5C 169.367,100.953 173.534,102.786 177.5,105C 170.233,116.804 159.566,122.638 145.5,122.5C 145.5,136.167 145.5,149.833 145.5,163.5C 140.309,163.942 135.309,163.442 130.5,162C 131.461,149.037 131.794,136.204 131.5,123.5 Z" />
  </g>
  <g>
    <path style="opacity:0.477" fill="#797979"
      d="M 109.5,122.5 C 112.984,121.835 116.651,121.501 120.5,121.5C 124.565,121.511 128.232,122.178 131.5,123.5C 124.254,122.536 116.92,122.203 109.5,122.5 Z" />
  </g>
</svg>