<svg width="569" height="427" viewBox="0 0 569 427" fill="none" xmlns="http://www.w3.org/2000/svg">
<path d="M313.141 245.982C313.151 241.571 316.729 238 321.141 238H561C565.418 238 569 241.581 569 246V300.99C569 305.412 565.412 308.995 560.99 308.99L321.008 308.684C316.586 308.679 313.008 305.088 313.018 300.666L313.141 245.982Z" fill="#FF5555"/>
<g filter="url(#filter0_f_1_50)">
<path d="M333.74 276.402L369.882 239.125L385.356 254.203L344.417 296.216L333.74 276.402Z" fill="black"/>
</g>
<path d="M412.808 252.991L413.792 272.551L432.697 267.442L414.399 274.421L425.1 290.823L412.808 275.577L400.516 290.823L411.217 274.421L392.919 267.442L411.825 272.551L412.808 252.991Z" fill="black"/>
<rect x="449.406" y="237.96" width="1.30704" height="71.2338" fill="black"/>
<rect x="374.904" y="237.96" width="1.30704" height="71.2338" fill="black"/>
<path d="M294.795 238.839C293.998 236.079 294.742 233.104 296.744 231.044L505.514 16.2038C508.596 13.0321 513.667 12.963 516.835 16.0495L556.69 54.8855C559.854 57.969 559.92 63.0339 556.836 66.1983L325.839 303.256C321.557 307.65 314.126 305.787 312.423 299.892L294.795 238.839Z" fill="#FF5555"/>
<path d="M348.523 234.323L347.292 235.586L341.647 230.086L343.314 228.376L347.383 229.762L349.223 230.52L349.313 230.428L348.491 228.625L346.959 224.635L348.634 222.916L354.279 228.417L353.047 229.681L350.183 226.889L349.339 225.985L349.249 226.078L349.813 227.269L351.191 230.911L349.697 232.444L346.02 231.161L344.815 230.627L344.725 230.72L345.659 231.531L348.523 234.323ZM359.079 223.491L357.929 224.671L356.927 223.694L356.844 223.745L355.37 222.308C355.095 222.04 354.841 221.929 354.609 221.977C354.382 222.019 354.104 222.208 353.776 222.545C353.464 222.865 353.287 223.142 353.246 223.375C353.205 223.609 353.305 223.843 353.546 224.078L353.58 224.111L352.34 225.383L352.315 225.359C351.967 225.019 351.751 224.629 351.667 224.186C351.578 223.738 351.625 223.274 351.808 222.795C351.99 222.305 352.305 221.829 352.754 221.369C353.214 220.897 353.667 220.583 354.115 220.428C354.567 220.266 355.002 220.247 355.42 220.369C355.837 220.48 356.231 220.716 356.602 221.078L359.079 223.491ZM356.273 226.539C355.83 226.994 355.381 227.252 354.927 227.313C354.473 227.375 354.072 227.236 353.724 226.896C353.51 226.688 353.377 226.46 353.324 226.211C353.271 225.962 353.298 225.693 353.405 225.403C353.507 225.108 353.688 224.792 353.95 224.456L355.604 222.372L356.328 223.078L354.995 224.8C354.858 224.963 354.779 225.105 354.759 225.227C354.738 225.339 354.778 225.443 354.879 225.542C354.992 225.651 355.117 225.686 355.255 225.645C355.393 225.605 355.553 225.492 355.733 225.306C356.029 225.003 356.244 224.726 356.38 224.474C356.515 224.223 356.57 223.987 356.545 223.765C356.52 223.533 356.401 223.312 356.187 223.104L356.294 222.978L357.01 223.676L356.895 223.794C357.128 224.207 357.197 224.652 357.103 225.131C357.01 225.598 356.733 226.067 356.273 226.539ZM364.358 218.074L362.905 219.565L360.354 219.132L358.843 220.682L357.714 219.582L359.217 218.04L358.7 215.435L360.162 213.936L360.698 217.464L364.358 218.074ZM360.934 221.587L359.703 222.851L354.058 217.35L355.29 216.086L360.934 221.587ZM366.95 215.583C366.496 216.049 366.015 216.385 365.507 216.591C365 216.797 364.487 216.84 363.97 216.719C363.452 216.598 362.947 216.297 362.452 215.816C362.003 215.378 361.711 214.902 361.577 214.388C361.437 213.868 361.447 213.347 361.607 212.823C361.772 212.294 362.082 211.797 362.536 211.331C362.985 210.87 363.455 210.545 363.946 210.356C364.442 210.161 364.938 210.118 365.433 210.228C365.923 210.333 366.386 210.599 366.824 211.026C366.897 211.097 366.962 211.165 367.018 211.231C367.075 211.297 367.134 211.371 367.196 211.453L363.502 215.245L362.836 214.596L365.66 211.698L365.794 212.387C365.738 212.332 365.684 212.28 365.634 212.231C365.583 212.181 365.533 212.132 365.482 212.083C365.162 211.771 364.847 211.634 364.537 211.671C364.227 211.708 363.88 211.923 363.497 212.316C363.081 212.743 362.875 213.123 362.879 213.456C362.878 213.783 363.057 214.122 363.417 214.472L363.737 214.784C364.096 215.134 364.442 215.307 364.775 215.303C365.102 215.293 365.476 215.072 365.898 214.64C366.259 214.269 366.466 213.961 366.518 213.717C366.57 213.472 366.507 213.262 366.327 213.087L366.243 213.005L367.474 211.741L367.567 211.831C367.87 212.127 368.049 212.482 368.105 212.898C368.16 213.313 368.091 213.755 367.897 214.223C367.703 214.68 367.388 215.133 366.95 215.583ZM373.933 208.248L372.702 209.511L367.057 204.011L368.289 202.747L373.933 208.248ZM371.471 201.758L366.151 207.217L365.013 206.109L370.333 200.649L371.471 201.758ZM381.033 200.962L379.802 202.226L377.594 200.075C377.241 199.73 376.911 199.574 376.607 199.605C376.302 199.626 375.955 199.835 375.567 200.234C375.293 200.515 375.116 200.775 375.036 201.015C374.956 201.254 374.962 201.484 375.053 201.705C375.139 201.92 375.3 202.143 375.536 202.373L375.356 202.558L374.555 201.745L374.785 201.509C374.587 201.228 374.447 200.923 374.365 200.591C374.283 200.259 374.293 199.912 374.393 199.551C374.5 199.183 374.728 198.82 375.078 198.46C375.445 198.084 375.827 197.843 376.225 197.738C376.623 197.633 377.011 197.645 377.39 197.773C377.769 197.902 378.121 198.124 378.447 198.442L381.033 200.962ZM377.651 204.433L376.419 205.697L370.775 200.196L372.006 198.933L377.651 204.433ZM383.923 198.166C383.468 198.632 382.988 198.968 382.48 199.174C381.972 199.38 381.46 199.423 380.943 199.302C380.425 199.181 379.92 198.88 379.425 198.398C378.976 197.961 378.684 197.485 378.55 196.971C378.41 196.451 378.42 195.93 378.58 195.406C378.745 194.877 379.055 194.38 379.509 193.914C379.958 193.453 380.428 193.128 380.919 192.939C381.415 192.744 381.911 192.701 382.406 192.811C382.896 192.916 383.359 193.182 383.797 193.609C383.87 193.68 383.935 193.748 383.991 193.814C384.048 193.88 384.107 193.954 384.169 194.036L380.474 197.828L379.809 197.179L382.633 194.281L382.767 194.97C382.711 194.915 382.657 194.863 382.607 194.814C382.556 194.764 382.506 194.715 382.455 194.666C382.135 194.354 381.82 194.216 381.51 194.254C381.2 194.291 380.853 194.506 380.47 194.899C380.054 195.326 379.848 195.706 379.852 196.039C379.851 196.366 380.03 196.705 380.39 197.055L380.71 197.367C381.069 197.717 381.415 197.89 381.748 197.886C382.075 197.876 382.449 197.655 382.871 197.223C383.232 196.852 383.439 196.544 383.491 196.3C383.543 196.055 383.48 195.845 383.3 195.67L383.216 195.588L384.447 194.324L384.54 194.414C384.843 194.71 385.022 195.065 385.078 195.48C385.133 195.896 385.064 196.337 384.87 196.806C384.676 197.263 384.361 197.716 383.923 198.166ZM391.276 190.452L387.819 193.998L382.175 188.498L385.475 185.111C385.853 184.723 386.224 184.45 386.588 184.29C386.946 184.124 387.295 184.075 387.634 184.143C387.968 184.205 388.283 184.382 388.581 184.672C388.929 185.011 389.123 185.397 389.161 185.829C389.195 186.255 388.998 186.721 388.572 187.226L388.648 187.299C389.196 186.815 389.714 186.565 390.202 186.547C390.695 186.524 391.133 186.699 391.515 187.071C391.835 187.383 392.047 187.721 392.152 188.086C392.257 188.451 392.239 188.834 392.1 189.235C391.961 189.625 391.686 190.03 391.276 190.452ZM386.692 190.436L387.914 191.626L389.991 189.495C390.242 189.237 390.378 189.007 390.398 188.807C390.412 188.602 390.306 188.39 390.082 188.171C389.857 187.952 389.645 187.855 389.446 187.88C389.246 187.905 389.021 188.046 388.769 188.304L386.692 190.436ZM384.544 188.342L385.647 189.418L387.577 187.438C387.807 187.202 387.929 186.993 387.943 186.809C387.952 186.621 387.86 186.433 387.669 186.247C387.479 186.061 387.286 185.978 387.092 185.997C386.898 186.016 386.687 186.144 386.457 186.379L384.544 188.342ZM395.805 185.973C395.35 186.439 394.869 186.775 394.362 186.981C393.854 187.188 393.342 187.23 392.825 187.109C392.307 186.989 391.801 186.687 391.307 186.206C390.858 185.768 390.566 185.292 390.432 184.778C390.292 184.258 390.302 183.737 390.462 183.214C390.627 182.685 390.936 182.187 391.391 181.721C391.839 181.26 392.309 180.935 392.801 180.746C393.297 180.551 393.793 180.509 394.288 180.619C394.777 180.723 395.241 180.989 395.679 181.416C395.752 181.487 395.817 181.555 395.873 181.621C395.929 181.687 395.989 181.761 396.051 181.844L392.356 185.635L391.691 184.986L394.515 182.088L394.649 182.777C394.592 182.722 394.539 182.67 394.489 182.621C394.438 182.572 394.387 182.522 394.337 182.473C394.017 182.161 393.702 182.024 393.392 182.061C393.081 182.098 392.735 182.313 392.352 182.707C391.936 183.133 391.73 183.513 391.734 183.846C391.733 184.173 391.912 184.512 392.271 184.862L392.592 185.174C392.951 185.524 393.297 185.697 393.63 185.693C393.957 185.683 394.331 185.462 394.753 185.03C395.114 184.659 395.321 184.351 395.373 184.107C395.425 183.862 395.361 183.652 395.182 183.477L395.097 183.395L396.329 182.131L396.422 182.221C396.725 182.517 396.904 182.872 396.959 183.288C397.015 183.703 396.946 184.145 396.752 184.613C396.558 185.07 396.242 185.524 395.805 185.973ZM400.621 181.031C399.931 181.739 399.268 182.155 398.632 182.279C397.99 182.399 397.425 182.22 396.936 181.744L396.911 181.719L398.142 180.456L398.218 180.529C398.409 180.716 398.604 180.774 398.803 180.705C399.001 180.625 399.276 180.405 399.626 180.045C399.955 179.708 400.143 179.459 400.191 179.298C400.238 179.125 400.2 178.979 400.077 178.858C399.959 178.743 399.836 178.706 399.709 178.747C399.577 178.782 399.373 178.906 399.099 179.121L397.798 180.169C397.342 180.546 396.907 180.757 396.492 180.801C396.082 180.84 395.697 180.684 395.338 180.334C395.09 180.093 394.94 179.804 394.885 179.466C394.826 179.123 394.884 178.742 395.062 178.324C395.239 177.895 395.564 177.439 396.034 176.956C396.483 176.495 396.922 176.162 397.352 175.957C397.782 175.741 398.194 175.661 398.589 175.717C398.983 175.772 399.352 175.967 399.694 176.301L399.72 176.326L398.488 177.59L398.438 177.54C398.32 177.425 398.2 177.358 398.077 177.337C397.955 177.305 397.806 177.34 397.629 177.443C397.459 177.539 397.247 177.716 396.996 177.975C396.689 178.289 396.515 178.53 396.473 178.697C396.425 178.858 396.468 179.005 396.603 179.136C396.71 179.24 396.832 179.277 396.971 179.248C397.109 179.207 397.332 179.069 397.639 178.832L398.627 178.037C399.236 177.535 399.754 177.263 400.18 177.218C400.607 177.174 400.994 177.321 401.342 177.661C401.606 177.918 401.754 178.227 401.787 178.587C401.819 178.947 401.741 179.336 401.552 179.754C401.358 180.167 401.047 180.593 400.621 181.031ZM405.967 175.376L404.949 176.42C404.468 176.915 403.969 177.184 403.454 177.23C402.939 177.275 402.415 177.038 401.881 176.518L398.368 173.095L399.599 171.831L402.969 175.115C403.183 175.323 403.37 175.417 403.53 175.399C403.691 175.369 403.878 175.245 404.091 175.026L404.83 174.267L405.967 175.376ZM402.791 172.28L399.581 175.575L398.536 174.557L401.747 171.262L402.791 172.28ZM408.927 172.339L407.695 173.602L402.051 168.102L403.282 166.838L408.927 172.339ZM410.121 166.9L405.934 171.196L404.805 170.096L408.992 165.799L410.121 166.9ZM407.843 164.433L403.533 168.856L402.396 167.748L406.706 163.325L407.843 164.433ZM414.106 167.024L412.875 168.288L408.654 164.174L409.885 162.911L414.106 167.024ZM409.456 162.492L408.224 163.756L407.23 162.787L408.461 161.523L409.456 162.492ZM419.299 161.695L418.067 162.959L415.86 160.808C415.518 160.474 415.197 160.315 414.897 160.33C414.592 160.339 414.251 160.537 413.873 160.925C413.479 161.329 413.287 161.695 413.297 162.022C413.307 162.338 413.491 162.671 413.851 163.022L413.695 163.182L412.812 162.503L413.042 162.267C412.845 161.998 412.705 161.697 412.623 161.365C412.536 161.028 412.542 160.679 412.643 160.317C412.743 159.944 412.974 159.572 413.335 159.202C413.708 158.82 414.093 158.576 414.491 158.471C414.883 158.361 415.266 158.367 415.639 158.49C416.012 158.613 416.356 158.827 416.67 159.134L419.299 161.695ZM415.982 165.099L414.751 166.362L410.53 162.249L411.671 161.078L412.985 162.359L413.118 162.307L415.982 165.099ZM424.076 156.793L422.927 157.972L421.924 156.995L421.842 157.046L420.367 155.61C420.092 155.342 419.838 155.231 419.606 155.278C419.379 155.32 419.102 155.51 418.773 155.847C418.461 156.167 418.285 156.444 418.243 156.677C418.202 156.91 418.302 157.145 418.543 157.38L418.577 157.413L417.337 158.685L417.312 158.661C416.964 158.321 416.748 157.93 416.665 157.488C416.576 157.04 416.622 156.576 416.805 156.097C416.987 155.606 417.303 155.131 417.751 154.67C418.211 154.198 418.665 153.885 419.112 153.729C419.564 153.568 420 153.549 420.417 153.671C420.834 153.782 421.228 154.018 421.599 154.379L424.076 156.793ZM421.27 159.841C420.827 160.295 420.378 160.554 419.924 160.615C419.471 160.676 419.069 160.537 418.721 160.198C418.508 159.99 418.375 159.761 418.321 159.513C418.268 159.264 418.295 158.994 418.402 158.705C418.504 158.409 418.686 158.094 418.948 157.758L420.601 155.673L421.326 156.379L419.992 158.102C419.855 158.264 419.777 158.407 419.756 158.529C419.735 158.64 419.776 158.745 419.877 158.844C419.989 158.953 420.114 158.988 420.252 158.947C420.39 158.906 420.55 158.793 420.73 158.608C421.026 158.305 421.241 158.027 421.377 157.776C421.512 157.525 421.567 157.288 421.542 157.067C421.517 156.834 421.398 156.614 421.184 156.406L421.291 156.28L422.007 156.978L421.892 157.096C422.125 157.509 422.194 157.954 422.101 158.432C422.007 158.899 421.73 159.369 421.27 159.841ZM429.249 151.485L428.017 152.749L425.81 150.598C425.467 150.264 425.146 150.105 424.847 150.119C424.542 150.129 424.201 150.327 423.823 150.715C423.429 151.119 423.237 151.485 423.247 151.812C423.256 152.128 423.441 152.461 423.8 152.812L423.644 152.972L422.762 152.293L422.992 152.057C422.794 151.788 422.655 151.487 422.573 151.155C422.485 150.818 422.492 150.469 422.592 150.107C422.693 149.734 422.924 149.362 423.285 148.992C423.657 148.61 424.042 148.366 424.44 148.261C424.833 148.151 425.215 148.157 425.588 148.28C425.962 148.403 426.305 148.617 426.62 148.924L429.249 151.485ZM425.932 154.889L424.7 156.152L420.479 152.039L421.621 150.868L422.935 152.149L423.067 152.097L425.932 154.889ZM432.148 148.679C431.683 149.156 431.185 149.487 430.655 149.671C430.125 149.855 429.601 149.887 429.084 149.766C428.566 149.634 428.086 149.352 427.642 148.92C427.193 148.482 426.898 148.009 426.759 147.5C426.619 146.981 426.634 146.454 426.805 145.919C426.975 145.385 427.293 144.879 427.759 144.401C428.202 143.946 428.666 143.621 429.152 143.427C429.637 143.232 430.111 143.173 430.572 143.25C431.028 143.322 431.438 143.536 431.803 143.891L431.921 144.006L430.698 145.262L430.63 145.196C430.361 144.933 430.082 144.843 429.795 144.924C429.502 145 429.194 145.203 428.871 145.535C428.505 145.911 428.312 146.266 428.294 146.599C428.282 146.926 428.472 147.281 428.865 147.664C429.247 148.037 429.605 148.215 429.937 148.2C430.27 148.173 430.619 147.972 430.986 147.595C431.309 147.264 431.507 146.954 431.581 146.664C431.649 146.37 431.549 146.091 431.279 145.828L431.212 145.762L432.435 144.507L432.553 144.622C432.918 144.978 433.145 145.385 433.234 145.844C433.318 146.298 433.268 146.77 433.086 147.261C432.904 147.751 432.591 148.224 432.148 148.679ZM436.05 144.506L434.818 145.77L430.597 141.656L431.829 140.393L436.05 144.506ZM431.399 139.974L430.168 141.238L429.174 140.269L430.405 139.005L431.399 139.974ZM440.849 139.582L439.699 140.761L438.697 139.784L438.614 139.835L437.14 138.398C436.865 138.13 436.611 138.02 436.378 138.067C436.152 138.109 435.874 138.298 435.546 138.635C435.234 138.955 435.057 139.232 435.016 139.466C434.974 139.699 435.074 139.933 435.316 140.169L435.35 140.202L434.11 141.474L434.085 141.449C433.736 141.11 433.521 140.719 433.437 140.276C433.348 139.828 433.395 139.364 433.577 138.885C433.76 138.395 434.075 137.919 434.524 137.459C434.984 136.987 435.437 136.673 435.884 136.518C436.337 136.357 436.772 136.337 437.19 136.459C437.607 136.57 438.001 136.807 438.372 137.168L440.849 139.582ZM438.043 142.629C437.6 143.084 437.151 143.342 436.697 143.404C436.243 143.465 435.842 143.326 435.494 142.987C435.28 142.779 435.147 142.55 435.094 142.301C435.041 142.052 435.068 141.783 435.175 141.493C435.276 141.198 435.458 140.882 435.72 140.546L437.373 138.462L438.098 139.168L436.764 140.89C436.628 141.053 436.549 141.195 436.529 141.318C436.508 141.429 436.548 141.534 436.649 141.632C436.761 141.742 436.887 141.776 437.025 141.736C437.163 141.695 437.322 141.582 437.503 141.397C437.798 141.093 438.014 140.816 438.149 140.565C438.285 140.313 438.34 140.077 438.315 139.856C438.29 139.623 438.17 139.403 437.957 139.195L438.063 139.068L438.78 139.766L438.665 139.884C438.897 140.297 438.967 140.743 438.873 141.221C438.779 141.688 438.503 142.157 438.043 142.629ZM442.704 137.677L441.473 138.941L435.828 133.44L437.06 132.177L442.704 137.677ZM447.333 132.927L445.018 135.303L443.881 134.195L446.196 131.819C446.573 131.431 446.829 131.079 446.964 130.761C447.098 130.432 447.097 130.097 446.959 129.754C446.822 129.401 446.528 129.006 446.079 128.568C445.624 128.125 445.221 127.841 444.87 127.718C444.524 127.59 444.192 127.6 443.872 127.748C443.552 127.885 443.203 128.148 442.826 128.535L440.511 130.911L439.373 129.803L441.688 127.427C442.28 126.82 442.901 126.407 443.552 126.188C444.21 125.963 444.866 125.935 445.523 126.104C446.18 126.273 446.803 126.645 447.392 127.22C447.982 127.795 448.37 128.408 448.556 129.06C448.742 129.712 448.731 130.369 448.523 131.032C448.321 131.689 447.924 132.321 447.333 132.927ZM445.913 134.385L444.681 135.649L439.037 130.148L440.268 128.884L445.913 134.385ZM453.017 127.263C452.563 127.729 452.082 128.066 451.574 128.272C451.067 128.478 450.554 128.521 450.037 128.4C449.52 128.279 449.014 127.978 448.52 127.496C448.07 127.058 447.778 126.582 447.644 126.068C447.504 125.549 447.514 125.027 447.674 124.504C447.839 123.975 448.149 123.477 448.603 123.011C449.052 122.551 449.522 122.226 450.013 122.036C450.51 121.841 451.005 121.799 451.5 121.909C451.99 122.014 452.453 122.279 452.892 122.706C452.965 122.777 453.029 122.846 453.086 122.912C453.142 122.977 453.201 123.052 453.263 123.134L449.569 126.925L448.903 126.277L451.727 123.378L451.861 124.067C451.805 124.012 451.751 123.96 451.701 123.911C451.65 123.862 451.6 123.813 451.549 123.763C451.229 123.451 450.914 123.314 450.604 123.351C450.294 123.389 449.947 123.604 449.564 123.997C449.148 124.424 448.942 124.804 448.947 125.136C448.945 125.464 449.124 125.802 449.484 126.153L449.804 126.465C450.163 126.815 450.509 126.988 450.842 126.984C451.169 126.974 451.543 126.753 451.965 126.32C452.326 125.949 452.533 125.642 452.585 125.397C452.638 125.152 452.574 124.942 452.394 124.767L452.31 124.685L453.541 123.422L453.634 123.512C453.937 123.807 454.117 124.163 454.172 124.578C454.227 124.993 454.158 125.435 453.964 125.903C453.771 126.361 453.455 126.814 453.017 127.263ZM457.948 122.203C457.483 122.681 456.985 123.012 456.455 123.196C455.925 123.38 455.401 123.412 454.884 123.291C454.367 123.159 453.886 122.877 453.442 122.444C452.993 122.007 452.698 121.533 452.559 121.025C452.419 120.506 452.434 119.979 452.605 119.444C452.775 118.909 453.093 118.403 453.559 117.926C454.002 117.471 454.466 117.146 454.952 116.951C455.437 116.756 455.911 116.698 456.372 116.775C456.828 116.847 457.238 117.06 457.603 117.416L457.721 117.531L456.498 118.786L456.43 118.721C456.161 118.458 455.882 118.367 455.595 118.449C455.302 118.525 454.994 118.728 454.671 119.06C454.305 119.436 454.112 119.79 454.094 120.123C454.082 120.451 454.272 120.806 454.666 121.189C455.047 121.561 455.405 121.74 455.737 121.724C456.07 121.698 456.419 121.497 456.786 121.12C457.109 120.789 457.307 120.478 457.381 120.189C457.449 119.894 457.349 119.616 457.079 119.353L457.012 119.287L458.235 118.032L458.353 118.147C458.718 118.503 458.945 118.91 459.034 119.369C459.118 119.823 459.068 120.295 458.886 120.785C458.704 121.276 458.391 121.748 457.948 122.203ZM461.85 118.031L460.618 119.294L456.398 115.181L457.629 113.918L461.85 118.031ZM457.199 113.499L455.968 114.763L454.974 113.794L456.205 112.53L457.199 113.499ZM464.656 115.32C463.966 116.027 463.303 116.444 462.667 116.568C462.025 116.688 461.46 116.509 460.971 116.033L460.946 116.008L462.178 114.745L462.254 114.818C462.444 115.005 462.639 115.063 462.838 114.994C463.037 114.914 463.311 114.694 463.661 114.334C463.99 113.997 464.178 113.748 464.226 113.587C464.273 113.414 464.236 113.268 464.112 113.147C463.994 113.032 463.872 112.995 463.744 113.036C463.612 113.071 463.408 113.195 463.134 113.41L461.833 114.458C461.377 114.835 460.942 115.046 460.527 115.09C460.117 115.129 459.732 114.973 459.373 114.623C459.126 114.382 458.975 114.093 458.921 113.755C458.861 113.412 458.92 113.031 459.097 112.613C459.275 112.184 459.599 111.728 460.069 111.245C460.518 110.784 460.958 110.451 461.388 110.246C461.817 110.03 462.229 109.95 462.624 110.005C463.018 110.061 463.387 110.256 463.73 110.59L463.755 110.615L462.523 111.878L462.473 111.829C462.355 111.714 462.235 111.647 462.112 111.626C461.99 111.594 461.841 111.629 461.665 111.732C461.494 111.828 461.283 112.005 461.031 112.264C460.724 112.578 460.55 112.819 460.508 112.986C460.46 113.147 460.504 113.294 460.638 113.425C460.745 113.529 460.868 113.566 461.006 113.537C461.144 113.496 461.367 113.357 461.674 113.121L462.662 112.326C463.271 111.824 463.789 111.552 464.216 111.507C464.642 111.463 465.029 111.61 465.378 111.95C465.642 112.207 465.79 112.516 465.822 112.876C465.854 113.236 465.776 113.625 465.588 114.043C465.393 114.456 465.083 114.882 464.656 115.32ZM468.336 111.375L467.104 112.638L462.884 108.525L464.115 107.262L468.336 111.375ZM463.685 106.843L462.454 108.107L461.46 107.138L462.691 105.874L463.685 106.843ZM471.257 108.546C470.792 109.023 470.291 109.357 469.756 109.547C469.226 109.731 468.699 109.766 468.177 109.651C467.648 109.53 467.162 109.253 466.718 108.821C466.269 108.383 465.98 107.904 465.851 107.385C465.717 106.86 465.735 106.33 465.906 105.795C466.082 105.255 466.402 104.746 466.868 104.269C467.338 103.786 467.839 103.452 468.369 103.268C468.899 103.083 469.428 103.052 469.956 103.172C470.479 103.288 470.965 103.564 471.414 104.002C471.858 104.434 472.147 104.913 472.281 105.438C472.41 105.958 472.389 106.485 472.219 107.02C472.048 107.554 471.727 108.063 471.257 108.546ZM470.136 107.454C470.552 107.027 470.758 106.647 470.754 106.315C470.749 105.971 470.562 105.619 470.191 105.257C469.815 104.891 469.455 104.709 469.111 104.714C468.773 104.713 468.396 104.926 467.98 105.352C467.564 105.779 467.358 106.165 467.362 106.508C467.372 106.847 467.565 107.199 467.942 107.566C468.312 107.927 468.667 108.108 469.005 108.109C469.343 108.099 469.72 107.881 470.136 107.454ZM478.572 100.871L477.34 102.135L475.133 99.9838C474.79 99.6499 474.469 99.4905 474.17 99.5055C473.865 99.5149 473.524 99.7134 473.146 100.101C472.752 100.505 472.56 100.871 472.57 101.198C472.58 101.514 472.764 101.847 473.124 102.198L472.968 102.358L472.085 101.679L472.315 101.443C472.118 101.174 471.978 100.873 471.896 100.541C471.808 100.204 471.815 99.8548 471.916 99.493C472.016 99.1201 472.247 98.7483 472.608 98.3776C472.981 97.9957 473.366 97.7523 473.764 97.6473C474.156 97.5369 474.539 97.543 474.912 97.6658C475.285 97.7885 475.629 98.0031 475.943 98.3096L478.572 100.871ZM475.255 104.275L474.023 105.538L469.803 101.425L470.944 100.254L472.258 101.535L472.391 101.483L475.255 104.275ZM481.356 98.1825C480.666 98.8901 480.004 99.3063 479.367 99.431C478.726 99.5502 478.16 99.3717 477.672 98.8955L477.647 98.8709L478.878 97.6072L478.954 97.6811C479.145 97.8672 479.34 97.9257 479.538 97.8565C479.737 97.7763 480.011 97.5565 480.362 97.1971C480.69 96.8601 480.878 96.6109 480.926 96.4494C480.974 96.2769 480.936 96.1304 480.812 96.01C480.694 95.8951 480.572 95.8578 480.445 95.8983C480.312 95.9333 480.109 96.0579 479.834 96.2722L478.533 97.3205C478.078 97.6979 477.642 97.9088 477.227 97.953C476.817 97.9915 476.432 97.8357 476.073 97.4854C475.826 97.2446 475.675 96.9553 475.621 96.6178C475.561 96.2747 475.62 95.894 475.798 95.4758C475.975 95.0465 476.299 94.5903 476.77 94.1073C477.219 93.6468 477.658 93.3139 478.088 93.1087C478.518 92.8924 478.93 92.8122 479.324 92.8681C479.719 92.924 480.087 93.1189 480.43 93.4528L480.455 93.4774L479.224 94.7411L479.173 94.6919C479.055 94.5769 478.935 94.5091 478.813 94.4885C478.69 94.4569 478.541 94.4921 478.365 94.5942C478.194 94.6906 477.983 94.8681 477.731 95.1264C477.425 95.4409 477.25 95.6817 477.208 95.8486C477.16 96.01 477.204 96.1564 477.339 96.2878C477.445 96.3918 477.568 96.429 477.706 96.3995C477.844 96.3589 478.067 96.2201 478.375 95.9832L479.363 95.1885C479.972 94.6871 480.489 94.4142 480.916 94.3699C481.342 94.3255 481.73 94.4731 482.078 94.8124C482.342 95.0696 482.49 95.3783 482.522 95.7383C482.555 96.0984 482.477 96.4876 482.288 96.906C482.094 97.3189 481.783 97.7444 481.356 98.1825Z" fill="black"/>
<path d="M56.6392 251.595L521.348 4.50527C525.249 2.43102 530.093 3.91197 532.167 7.81308L558.192 56.7584C560.266 60.6595 558.785 65.5035 554.884 67.5778L90.1755 314.668L56.6392 251.595Z" fill="black"/>
<g clip-path="url(#clip0_1_50)">
<path d="M344.8 136.222L343.357 136.989C342.879 137.243 342.698 137.837 342.952 138.315C343.206 138.793 343.8 138.974 344.278 138.72L344.855 138.413C345.333 138.159 345.927 138.341 346.181 138.819C346.435 139.297 346.253 139.89 345.775 140.144L344.333 140.911M343.339 136.259L343.646 136.836M345.487 140.298L345.794 140.875M348.029 136.726L348.034 136.723M341.104 140.408L341.11 140.405M337.63 139.442L339.962 143.828C340.306 144.474 340.478 144.797 340.735 144.977C340.961 145.135 341.231 145.218 341.507 145.213C341.821 145.208 342.144 145.036 342.79 144.692L350.638 140.52C351.284 140.176 351.607 140.004 351.787 139.747C351.946 139.521 352.028 139.251 352.024 138.975C352.018 138.661 351.846 138.338 351.503 137.691L349.171 133.306C348.827 132.66 348.655 132.336 348.398 132.157C348.172 131.998 347.902 131.916 347.626 131.92C347.312 131.926 346.989 132.098 346.343 132.441L338.495 136.614C337.849 136.958 337.525 137.129 337.346 137.386C337.187 137.613 337.105 137.883 337.109 138.159C337.115 138.473 337.287 138.796 337.63 139.442ZM348.317 136.573C348.402 136.732 348.341 136.93 348.182 137.014C348.023 137.099 347.825 137.039 347.74 136.879C347.655 136.72 347.716 136.522 347.875 136.437C348.035 136.353 348.232 136.413 348.317 136.573ZM341.393 140.254C341.478 140.414 341.417 140.611 341.258 140.696C341.098 140.781 340.9 140.72 340.816 140.561C340.731 140.402 340.792 140.204 340.951 140.119C341.11 140.034 341.308 140.095 341.393 140.254Z" stroke="#FF5555" stroke-width="1.30704" stroke-linecap="round" stroke-linejoin="round"/>
</g>
<circle cx="344.567" cy="138.567" r="15.3578" transform="rotate(-28 344.567 138.567)" stroke="#FF5555" stroke-width="0.653521"/>
<path d="M367.134 120.567L365.576 121.395L361.876 114.436L363.433 113.608L367.134 120.567ZM369.928 115.75L364.631 118.567L363.891 117.175L369.188 114.358L369.928 115.75ZM368.51 112.707L363.057 115.607L362.312 114.204L367.765 111.305L368.51 112.707ZM373.686 117.083L372.128 117.911L369.361 112.708L370.919 111.879L373.686 117.083ZM370.638 111.35L369.08 112.178L368.428 110.952L369.986 110.124L370.638 111.35ZM380.256 113.59L378.698 114.418L377.251 111.697C377.026 111.275 376.769 111.025 376.479 110.948C376.186 110.864 375.801 110.949 375.323 111.203C374.824 111.468 374.53 111.758 374.439 112.073C374.352 112.377 374.427 112.75 374.662 113.193L374.465 113.298L373.832 112.383L374.122 112.228C374.016 111.911 373.975 111.583 373.998 111.242C374.017 110.894 374.13 110.563 374.336 110.249C374.545 109.925 374.878 109.641 375.335 109.398C375.806 109.148 376.247 109.033 376.658 109.054C377.066 109.069 377.428 109.191 377.746 109.422C378.064 109.652 378.326 109.962 378.533 110.349L380.256 113.59ZM376.059 115.821L374.501 116.649L371.735 111.446L373.178 110.678L374.04 112.298L374.182 112.29L376.059 115.821ZM386.299 110.376L384.845 111.15L384.188 109.914L384.094 109.937L383.127 108.119C382.947 107.78 382.739 107.598 382.503 107.572C382.274 107.543 381.952 107.638 381.537 107.859C381.142 108.069 380.89 108.279 380.779 108.489C380.669 108.698 380.692 108.952 380.851 109.25L380.873 109.291L379.305 110.125L379.288 110.094C379.06 109.665 378.973 109.227 379.029 108.78C379.081 108.326 379.266 107.899 379.586 107.498C379.909 107.086 380.354 106.729 380.922 106.427C381.504 106.118 382.031 105.958 382.505 105.946C382.985 105.93 383.405 106.044 383.766 106.288C384.129 106.521 384.433 106.866 384.676 107.323L386.299 110.376ZM382.698 112.424C382.138 112.722 381.632 112.832 381.181 112.752C380.73 112.672 380.39 112.417 380.162 111.988C380.022 111.725 379.964 111.467 379.99 111.213C380.015 110.96 380.123 110.712 380.313 110.468C380.5 110.218 380.769 109.973 381.121 109.733L383.331 108.251L383.806 109.144L382.01 110.379C381.831 110.492 381.713 110.604 381.656 110.714C381.602 110.813 381.608 110.925 381.675 111.05C381.748 111.189 381.857 111.259 382.001 111.263C382.145 111.266 382.331 111.207 382.56 111.086C382.934 110.887 383.223 110.688 383.429 110.49C383.634 110.292 383.759 110.084 383.803 109.865C383.85 109.636 383.803 109.39 383.663 109.127L383.803 109.039L384.272 109.922L384.127 109.999C384.223 110.463 384.153 110.909 383.918 111.336C383.687 111.752 383.28 112.115 382.698 112.424ZM392.843 106.897L391.285 107.725L389.838 105.004C389.614 104.582 389.357 104.332 389.067 104.255C388.774 104.171 388.388 104.256 387.91 104.51C387.412 104.775 387.117 105.065 387.027 105.38C386.94 105.684 387.014 106.057 387.25 106.5L387.052 106.605L386.419 105.69L386.71 105.535C386.604 105.218 386.562 104.89 386.585 104.549C386.605 104.201 386.717 103.87 386.923 103.556C387.133 103.232 387.466 102.948 387.923 102.705C388.394 102.455 388.835 102.34 389.246 102.361C389.653 102.376 390.016 102.498 390.334 102.729C390.652 102.959 390.914 103.269 391.12 103.656L392.843 106.897ZM388.647 109.128L387.089 109.957L384.322 104.753L385.766 103.985L386.627 105.606L386.769 105.597L388.647 109.128ZM396.46 105.107C395.871 105.42 395.296 105.584 394.735 105.598C394.174 105.612 393.666 105.482 393.21 105.21C392.757 104.926 392.386 104.511 392.095 103.964C391.8 103.41 391.664 102.87 391.686 102.343C391.711 101.806 391.886 101.308 392.212 100.851C392.537 100.394 392.994 100.009 393.582 99.6959C394.143 99.3977 394.685 99.2298 395.206 99.1922C395.728 99.1545 396.197 99.2428 396.613 99.4569C397.025 99.6641 397.351 99.9927 397.59 100.443L397.667 100.588L396.12 101.411L396.076 101.328C395.899 100.996 395.661 100.824 395.363 100.814C395.061 100.797 394.705 100.897 394.297 101.115C393.833 101.361 393.542 101.641 393.423 101.952C393.312 102.26 393.385 102.657 393.642 103.141C393.893 103.612 394.179 103.891 394.5 103.978C394.825 104.054 395.219 103.968 395.683 103.722C396.091 103.504 396.375 103.269 396.534 103.016C396.688 102.756 396.678 102.46 396.501 102.128L396.457 102.045L398.004 101.222L398.081 101.367C398.321 101.817 398.413 102.275 398.358 102.739C398.299 103.197 398.108 103.631 397.785 104.043C397.462 104.454 397.021 104.809 396.46 105.107ZM402.707 101.785C402.133 102.091 401.572 102.264 401.026 102.306C400.48 102.348 399.979 102.232 399.523 101.96C399.067 101.687 398.677 101.246 398.353 100.637C398.058 100.083 397.926 99.5404 397.954 99.01C397.98 98.4726 398.148 97.979 398.459 97.5291C398.778 97.0756 399.224 96.696 399.799 96.3904C400.367 96.0885 400.914 95.9222 401.439 95.8915C401.971 95.8572 402.457 95.9678 402.894 96.2235C403.329 96.4722 403.689 96.8666 403.977 97.4067C404.024 97.4967 404.065 97.5816 404.099 97.6615C404.132 97.7413 404.166 97.83 404.2 97.9273L399.526 100.412L399.09 99.592L402.663 97.6922L402.58 98.3889C402.544 98.3197 402.509 98.2539 402.475 98.1916C402.442 98.1292 402.409 98.0669 402.376 98.0046C402.166 97.6099 401.908 97.3831 401.601 97.3241C401.294 97.2651 400.899 97.3645 400.414 97.6222C399.888 97.902 399.576 98.201 399.479 98.5192C399.378 98.8305 399.445 99.2077 399.681 99.6508L399.891 100.046C400.126 100.489 400.403 100.759 400.721 100.856C401.036 100.947 401.46 100.85 401.993 100.566C402.45 100.323 402.741 100.093 402.865 99.8763C402.989 99.6592 402.993 99.4398 402.875 99.2182L402.82 99.1144L404.377 98.286L404.438 98.4002C404.637 98.7742 404.7 99.1673 404.626 99.5796C404.552 99.9919 404.351 100.392 404.024 100.779C403.7 101.155 403.261 101.491 402.707 101.785Z" fill="white"/>
<path d="M375.392 136.9L374.27 137.497L370.57 130.538L372.097 129.726L376.244 132.69L377.645 133.797L377.728 133.753L377.573 131.983L377.415 126.899L378.941 126.087L382.641 133.046L381.52 133.642L379.25 129.373L378.756 128.344L378.673 128.388L378.783 129.622L378.91 134.497L377.56 135.215L373.589 132.383L372.628 131.602L372.545 131.646L373.122 132.632L375.392 136.9ZM386.376 131.193C385.808 131.495 385.247 131.651 384.693 131.662C384.143 131.661 383.639 131.525 383.183 131.252C382.731 130.969 382.364 130.564 382.085 130.038C381.797 129.498 381.665 128.964 381.687 128.437C381.715 127.907 381.886 127.417 382.197 126.967C382.512 126.506 382.953 126.125 383.521 125.823C384.103 125.514 384.669 125.36 385.22 125.36C385.767 125.353 386.265 125.488 386.714 125.764C387.17 126.037 387.541 126.444 387.828 126.984C388.108 127.51 388.235 128.042 388.21 128.579C388.188 129.106 388.024 129.598 387.716 130.055C387.404 130.504 386.958 130.884 386.376 131.193ZM385.846 130.196C386.476 129.861 386.854 129.478 386.98 129.047C387.102 128.609 387.018 128.116 386.727 127.569C386.436 127.022 386.075 126.677 385.644 126.533C385.208 126.383 384.676 126.475 384.046 126.81C383.422 127.141 383.051 127.53 382.933 127.975C382.81 128.413 382.895 128.905 383.186 129.452C383.476 129.999 383.838 130.345 384.269 130.488C384.697 130.625 385.223 130.527 385.846 130.196ZM392.508 127.933C391.677 128.375 390.948 128.558 390.322 128.482C389.703 128.403 389.235 128.066 388.918 127.47L388.901 127.439L390.023 126.843L390.067 126.926C390.248 127.265 390.484 127.441 390.775 127.455C391.07 127.458 391.487 127.316 392.028 127.029C392.533 126.76 392.848 126.526 392.973 126.327C393.101 126.116 393.104 125.897 392.983 125.669C392.869 125.454 392.715 125.34 392.522 125.328C392.335 125.311 392.042 125.378 391.643 125.528L390.131 126.093C389.606 126.292 389.148 126.358 388.757 126.29C388.362 126.216 388.049 125.961 387.817 125.524C387.655 125.22 387.603 124.905 387.662 124.581C387.716 124.25 387.889 123.923 388.179 123.6C388.469 123.277 388.877 122.975 389.404 122.696C389.93 122.416 390.417 122.246 390.864 122.185C391.319 122.121 391.72 122.174 392.068 122.345C392.423 122.511 392.709 122.799 392.926 123.207L392.943 123.238L391.832 123.829L391.798 123.767C391.692 123.566 391.56 123.419 391.403 123.324C391.246 123.23 391.042 123.205 390.791 123.25C390.543 123.284 390.228 123.403 389.847 123.605C389.37 123.859 389.067 124.091 388.939 124.302C388.811 124.512 388.811 124.738 388.94 124.98C389.047 125.181 389.193 125.29 389.379 125.306C389.566 125.323 389.864 125.257 390.274 125.11L391.557 124.641C392.207 124.393 392.736 124.303 393.145 124.37C393.554 124.437 393.872 124.685 394.1 125.114C394.27 125.433 394.317 125.763 394.241 126.105C394.162 126.441 393.975 126.766 393.681 127.082C393.384 127.392 392.993 127.675 392.508 127.933ZM399.058 124.317L397.874 124.947C397.32 125.241 396.808 125.34 396.339 125.243C395.877 125.142 395.48 124.78 395.149 124.157L392.73 119.608L393.841 119.017L396.227 123.504C396.397 123.822 396.587 123.996 396.798 124.026C397.006 124.049 397.269 123.976 397.587 123.807L398.522 123.309L399.058 124.317ZM396.81 120.09L392.957 122.139L392.46 121.204L396.313 119.155L396.81 120.09ZM403.826 119.091L400.845 120.676L400.309 119.668L403.186 118.138C403.712 117.859 404.05 117.541 404.199 117.187C404.355 116.829 404.295 116.39 404.019 115.87C403.746 115.358 403.418 115.066 403.034 114.995C402.653 114.914 402.199 115.013 401.673 115.292L398.796 116.822L398.26 115.815L401.241 114.23C401.76 113.954 402.265 113.809 402.756 113.797C403.25 113.774 403.7 113.886 404.107 114.132C404.52 114.374 404.864 114.755 405.14 115.274C405.413 115.786 405.534 116.282 405.504 116.759C405.481 117.234 405.323 117.673 405.032 118.076C404.747 118.476 404.345 118.815 403.826 119.091ZM402.656 122.404L401.534 123L397.834 116.041L398.956 115.445L402.656 122.404ZM410.912 118.147C410.344 118.449 409.783 118.605 409.229 118.616C408.678 118.615 408.175 118.479 407.719 118.206C407.267 117.923 406.9 117.518 406.621 116.992C406.333 116.452 406.201 115.918 406.223 115.391C406.251 114.861 406.422 114.371 406.733 113.921C407.048 113.46 407.489 113.079 408.057 112.777C408.639 112.468 409.205 112.314 409.756 112.314C410.303 112.307 410.801 112.442 411.25 112.718C411.706 112.991 412.077 113.398 412.364 113.938C412.644 114.464 412.771 114.996 412.746 115.533C412.724 116.06 412.56 116.552 412.252 117.008C411.94 117.458 411.494 117.838 410.912 118.147ZM410.382 117.15C411.012 116.815 411.39 116.432 411.516 116.001C411.638 115.563 411.554 115.07 411.263 114.523C410.972 113.976 410.611 113.631 410.18 113.487C409.744 113.337 409.212 113.429 408.582 113.764C407.958 114.095 407.587 114.484 407.469 114.929C407.346 115.367 407.431 115.859 407.722 116.406C408.012 116.953 408.374 117.299 408.805 117.442C409.233 117.579 409.759 117.481 410.382 117.15ZM417.885 114.439C417.311 114.745 416.764 114.853 416.246 114.765C415.728 114.676 415.292 114.424 414.938 114.008L414.699 114.135L414.147 113.096L414.344 112.992C414.528 113.338 414.757 113.593 415.032 113.758C415.302 113.917 415.6 113.984 415.926 113.962C416.255 113.929 416.6 113.817 416.96 113.626C417.334 113.427 417.621 113.208 417.822 112.968C418.026 112.717 418.133 112.434 418.143 112.118C418.152 111.802 418.049 111.439 417.831 111.031C417.611 110.615 417.366 110.323 417.099 110.154C416.832 109.986 416.539 109.919 416.221 109.955C415.909 109.988 415.573 110.1 415.213 110.291C414.639 110.597 414.269 110.971 414.105 111.414C413.937 111.849 414 112.344 414.295 112.898L414.097 113.003L413.417 111.899L413.687 111.756C413.537 111.223 413.57 110.725 413.786 110.264C414.006 109.792 414.417 109.395 415.02 109.075C415.553 108.792 416.067 108.665 416.563 108.694C417.054 108.717 417.504 108.878 417.911 109.176C418.319 109.475 418.666 109.894 418.953 110.434C419.233 110.961 419.385 111.479 419.408 111.991C419.434 112.492 419.322 112.956 419.069 113.384C418.82 113.8 418.425 114.152 417.885 114.439ZM416.608 117.25L415.487 117.846L411.803 110.919L412.831 110.372L413.693 111.992L413.858 112.078L416.608 117.25ZM423.306 111.557C422.821 111.815 422.368 111.932 421.946 111.907C421.524 111.883 421.147 111.75 420.815 111.509C420.483 111.269 420.21 110.947 419.996 110.546L418.345 107.44L419.457 106.849L420.948 109.654C421.202 110.131 421.513 110.432 421.881 110.556C422.252 110.67 422.711 110.581 423.258 110.29C423.833 109.985 424.176 109.62 424.288 109.196C424.404 108.762 424.312 108.264 424.014 107.703L424.206 107.588L424.809 108.573L424.571 108.7C424.677 109.016 424.711 109.349 424.674 109.697C424.638 110.045 424.511 110.384 424.295 110.712C424.085 111.036 423.756 111.318 423.306 111.557ZM426.522 109.714L425.494 110.261L424.632 108.64L424.511 108.638L422.656 105.148L423.777 104.552L426.522 109.714ZM428.663 108.576L427.541 109.172L423.841 102.213L424.963 101.617L428.663 108.576ZM434.583 105.428L433.555 105.974L432.848 104.645L432.759 104.653L431.82 102.887C431.592 102.458 431.33 102.215 431.033 102.159C430.741 102.093 430.345 102.192 429.846 102.457C429.369 102.711 429.056 102.984 428.909 103.275C428.762 103.567 428.79 103.903 428.992 104.284L429.014 104.325L427.903 104.916L427.881 104.875C427.671 104.48 427.589 104.075 427.635 103.66C427.677 103.238 427.844 102.834 428.136 102.448C428.435 102.058 428.858 101.717 429.405 101.426C429.952 101.136 430.448 100.992 430.894 100.995C431.343 100.987 431.735 101.098 432.07 101.328C432.413 101.555 432.694 101.876 432.915 102.291L434.583 105.428ZM431.273 107.321C430.74 107.604 430.252 107.713 429.808 107.647C429.367 107.57 429.035 107.321 428.81 106.898C428.667 106.628 428.613 106.368 428.649 106.118C428.688 105.858 428.804 105.609 428.998 105.373C429.192 105.137 429.448 104.907 429.765 104.685L432.078 103.122L432.432 103.787L430.43 105.158C430.157 105.347 429.972 105.526 429.875 105.693C429.78 105.85 429.787 106.029 429.893 106.229C430.004 106.437 430.159 106.554 430.36 106.581C430.564 106.597 430.825 106.52 431.144 106.351C431.538 106.141 431.855 105.91 432.095 105.658C432.33 105.4 432.474 105.119 432.526 104.816C432.578 104.513 432.514 104.192 432.334 103.853L432.49 103.796L432.943 104.648L432.797 104.725C432.891 105.235 432.807 105.72 432.544 106.179C432.286 106.627 431.862 107.008 431.273 107.321ZM436.706 104.299L435.585 104.895L432.84 99.7333L433.868 99.1865L434.647 100.651L434.768 100.653L436.706 104.299ZM435.165 101.401L434.916 101.534L434.452 100.661L434.681 100.54C434.578 100.23 434.541 99.9257 434.568 99.6268C434.592 99.321 434.691 99.0379 434.863 98.7775C435.042 98.5134 435.308 98.2874 435.662 98.0997C436.056 97.8898 436.422 97.8017 436.76 97.8353C437.098 97.869 437.396 97.9948 437.654 98.2129C437.919 98.4273 438.138 98.6972 438.311 99.0226L438.67 99.6977L437.558 100.289L437.315 99.8317C437.116 99.4577 436.888 99.2284 436.63 99.1437C436.372 99.0589 436.049 99.1196 435.661 99.3258C435.218 99.5614 434.964 99.852 434.899 100.197C434.833 100.543 434.922 100.944 435.165 101.401ZM443.351 100.766L442.104 101.429L441.51 92.8185L443.089 91.979L449.894 97.2867L448.627 97.9605L443.812 94.1921L442.883 93.4208L442.8 93.465L442.919 94.6671L443.351 100.766ZM447.323 96.3355L442.681 98.804L442.145 97.7966L446.788 95.328L447.323 96.3355ZM453.076 95.7283C452.508 96.0302 451.954 96.1826 451.414 96.1856C450.87 96.1817 450.374 96.0415 449.925 95.7651C449.479 95.4781 449.116 95.0714 448.836 94.5452C448.549 94.0051 448.413 93.4735 448.428 92.9504C448.45 92.4236 448.613 91.9371 448.918 91.491C449.219 91.0379 449.653 90.6604 450.221 90.3585C450.74 90.0823 451.248 89.9275 451.746 89.894C452.243 89.8605 452.692 89.9457 453.094 90.1497C453.499 90.343 453.817 90.6578 454.049 91.094L454.104 91.1979L452.993 91.7888L452.96 91.7265C452.746 91.3249 452.449 91.1008 452.069 91.0542C451.686 91.0006 451.241 91.1082 450.736 91.377C450.154 91.6863 449.804 92.0546 449.684 92.4821C449.562 92.9027 449.649 93.3934 449.948 93.9543C450.242 94.5082 450.6 94.8553 451.021 94.9956C451.438 95.129 451.938 95.0411 452.519 94.7318C453.025 94.4631 453.365 94.1581 453.538 93.817C453.709 93.4689 453.687 93.094 453.473 92.6924L453.435 92.6197L454.546 92.0288L454.607 92.1431C454.835 92.5724 454.918 93.0123 454.856 93.463C454.8 93.9099 454.62 94.3301 454.314 94.7237C454.008 95.1173 453.595 95.4521 453.076 95.7283ZM459.192 92.4762C458.624 92.7781 458.07 92.9306 457.53 92.9336C456.986 92.9297 456.49 92.7895 456.041 92.513C455.595 92.226 455.232 91.8194 454.953 91.2931C454.665 90.753 454.529 90.2214 454.544 89.6983C454.566 89.1715 454.729 88.6851 455.034 88.2389C455.335 87.7858 455.769 87.4083 456.337 87.1064C456.856 86.8303 457.365 86.6755 457.862 86.642C458.359 86.6084 458.809 86.6937 459.21 86.8976C459.615 87.091 459.933 87.4057 460.165 87.842L460.221 87.9458L459.109 88.5367L459.076 88.4744C458.863 88.0728 458.566 87.8487 458.186 87.8021C457.802 87.7486 457.357 87.8562 456.852 88.1249C456.27 88.4342 455.92 88.8026 455.801 89.2301C455.678 89.6506 455.766 90.1413 456.064 90.7022C456.358 91.2561 456.716 91.6033 457.137 91.7436C457.555 91.877 458.054 91.789 458.636 91.4798C459.141 91.211 459.481 90.906 459.655 90.5649C459.825 90.2168 459.803 89.842 459.59 89.4404L459.551 89.3677L460.662 88.7767L460.723 88.891C460.951 89.3203 461.034 89.7603 460.972 90.2109C460.916 90.6578 460.736 91.0781 460.43 91.4717C460.124 91.8652 459.711 92.2001 459.192 92.4762ZM465.339 89.2076C464.772 89.5095 464.211 89.6656 463.657 89.676C463.106 89.6757 462.603 89.5393 462.147 89.2665C461.694 88.9831 461.328 88.5783 461.048 88.0521C460.761 87.512 460.628 86.9786 460.65 86.4518C460.679 85.9213 460.849 85.4311 461.161 84.9813C461.475 84.5209 461.917 84.1397 462.484 83.8378C463.066 83.5285 463.632 83.374 464.183 83.3742C464.73 83.3675 465.228 83.5024 465.677 83.7788C466.133 84.0516 466.505 84.458 466.792 84.9981C467.072 85.5244 467.199 86.0562 467.174 86.5936C467.152 87.1204 466.987 87.6121 466.679 88.0689C466.368 88.5188 465.921 88.8983 465.339 89.2076ZM464.809 88.2105C465.439 87.8754 465.818 87.4923 465.944 87.0612C466.066 86.6231 465.982 86.1305 465.691 85.5835C465.4 85.0365 465.039 84.6912 464.607 84.5476C464.172 84.3972 463.639 84.4895 463.009 84.8245C462.386 85.1558 462.015 85.544 461.896 85.989C461.774 86.4271 461.858 86.9197 462.149 87.4667C462.44 88.0137 462.801 88.359 463.233 88.5026C463.661 88.6392 464.186 88.5418 464.809 88.2105ZM471.181 86.1018C470.696 86.3595 470.243 86.4761 469.821 86.4516C469.4 86.4271 469.023 86.2944 468.69 86.0537C468.358 85.8129 468.085 85.4917 467.871 85.0901L466.22 81.9846L467.332 81.3937L468.823 84.198C469.077 84.6758 469.388 84.9767 469.756 85.1008C470.127 85.2143 470.586 85.1256 471.133 84.8348C471.708 84.5292 472.051 84.1645 472.163 83.7407C472.279 83.3063 472.187 82.8086 471.889 82.2478L472.081 82.1325L472.685 83.1172L472.446 83.2442C472.552 83.5608 472.586 83.8932 472.55 84.2415C472.513 84.5897 472.386 84.9279 472.17 85.2561C471.96 85.5806 471.631 85.8625 471.181 86.1018ZM474.397 84.2583L473.369 84.8051L472.507 83.1848L472.386 83.1826L470.531 79.6927L471.652 79.0963L474.397 84.2583ZM480.807 80.8503L479.685 81.4467L478.194 78.6424C477.936 78.1577 477.625 77.8567 477.261 77.7395C476.904 77.6187 476.455 77.7019 475.915 77.989C475.354 78.2872 475.016 78.6536 474.9 79.088C474.788 79.5118 474.881 80.0041 475.179 80.565L474.988 80.6803L474.394 79.69L474.623 79.5685C474.524 79.2483 474.489 78.9158 474.519 78.5713C474.552 78.2161 474.675 77.8797 474.888 77.5622C475.105 77.234 475.431 76.9539 475.867 76.722C476.345 76.4679 476.795 76.3532 477.216 76.3777C477.638 76.4022 478.011 76.5367 478.337 76.7812C478.669 77.0219 478.942 77.3431 479.155 77.7447L480.807 80.8503ZM476.538 83.12L475.416 83.7165L472.671 78.5544L473.7 78.0077L474.561 79.628L474.682 79.6302L476.538 83.12ZM485.192 78.5184L484.008 79.148C483.454 79.4426 482.943 79.5413 482.474 79.4443C482.012 79.3436 481.615 78.9817 481.284 78.3585L478.865 73.8092L479.976 73.2183L482.362 77.7053C482.531 78.0238 482.721 78.1979 482.933 78.2277C483.14 78.2506 483.403 78.1773 483.722 78.008L484.657 77.511L485.192 78.5184ZM482.945 74.2912L479.091 76.34L478.594 75.4053L482.448 73.3564L482.945 74.2912ZM487.016 77.5489L485.894 78.1454L483.149 72.9833L484.271 72.3869L487.016 77.5489ZM483.951 71.7845L482.829 72.3809L482.194 71.1864L483.316 70.59L483.951 71.7845ZM493.445 74.1304L492.323 74.7268L490.832 71.9225C490.574 71.4378 490.263 71.1369 489.899 71.0197C489.542 70.8988 489.093 70.982 488.553 71.2692C487.992 71.5674 487.654 71.9337 487.538 72.3681C487.426 72.7919 487.519 73.2843 487.818 73.8451L487.626 73.9604L487.033 72.9702L487.261 72.8487C487.162 72.5284 487.127 72.196 487.157 71.8514C487.19 71.4963 487.314 71.1599 487.527 70.8423C487.743 70.5141 488.069 70.2341 488.505 70.0021C488.983 69.7481 489.433 69.6333 489.854 69.6579C490.276 69.6824 490.65 69.8169 490.975 70.0613C491.307 70.3021 491.58 70.6233 491.794 71.0249L493.445 74.1304ZM489.176 76.4002L488.054 76.9966L485.31 71.8346L486.338 71.2878L487.199 72.9081L487.321 72.9103L489.176 76.4002ZM498.149 74.0271C497.637 74.2996 497.145 74.4593 496.672 74.5062C496.203 74.56 495.781 74.5004 495.405 74.3274C495.035 74.1507 494.74 73.8547 494.519 73.4392L495.631 72.8483C495.763 73.0976 495.922 73.2708 496.107 73.3679C496.292 73.465 496.512 73.4858 496.766 73.4303C497.032 73.378 497.348 73.2543 497.715 73.0592C498.109 72.8493 498.397 72.6387 498.578 72.4272C498.769 72.2189 498.859 71.9798 498.849 71.7099C498.839 71.44 498.732 71.1147 498.53 70.7339L496.923 67.7114L496.967 67.5945L496.156 66.0677L497.184 65.521L499.608 70.0806C499.914 70.6553 500.048 71.1835 500.011 71.665C499.978 72.1535 499.799 72.5948 499.476 72.9888C499.152 73.3828 498.71 73.7289 498.149 74.0271ZM496.439 71.9387C495.927 72.2111 495.434 72.3445 494.96 72.3388C494.493 72.3295 494.064 72.1982 493.672 71.9449C493.286 71.6879 492.967 71.3205 492.713 70.8427C492.458 70.365 492.336 69.8927 492.345 69.4258C492.362 68.9553 492.503 68.5202 492.771 68.1206C493.045 67.7173 493.441 67.3776 493.961 67.1015C494.501 66.8143 495.022 66.6925 495.525 66.736C496.031 66.769 496.449 66.9865 496.778 67.3888L497.017 67.2617L497.435 68.1985L497.238 68.3034C497.083 68.0126 496.885 67.8071 496.643 67.6868C496.398 67.5597 496.122 67.5157 495.814 67.555C495.506 67.5943 495.169 67.7115 494.802 67.9066C494.449 68.0944 494.164 68.3032 493.949 68.5331C493.741 68.7594 493.623 69.0132 493.595 69.2946C493.57 69.5653 493.653 69.8807 493.845 70.2408C494.032 70.5939 494.247 70.8394 494.489 70.9772C494.731 71.1149 495.003 71.166 495.304 71.1304C495.608 71.0842 495.936 70.9672 496.289 70.7795C496.857 70.4776 497.231 70.1279 497.41 69.7305C497.59 69.3331 497.558 68.9058 497.315 68.4488L497.512 68.3439L498.054 69.3618L497.784 69.5054C497.903 69.9479 497.856 70.3859 497.643 70.8192C497.429 71.2526 497.028 71.6257 496.439 71.9387ZM503.469 68.8008L502.222 69.4635L501.628 60.8533L503.206 60.0139L510.012 65.3216L508.745 65.9953L503.93 62.227L503 61.4557L502.917 61.4999L503.037 62.702L503.469 68.8008ZM507.441 64.3703L502.798 66.8389L502.263 65.8314L506.905 63.3628L507.441 64.3703ZM513.869 63.4042C513.294 63.7097 512.748 63.8182 512.23 63.7294C511.712 63.6406 511.276 63.3884 510.921 62.9728L510.683 63.0998L510.13 62.0612L510.328 61.9562C510.512 62.3025 510.741 62.5581 511.015 62.7231C511.286 62.8812 511.584 62.9492 511.91 62.927C512.239 62.8942 512.583 62.7821 512.943 62.5906C513.317 62.3918 513.604 62.1724 513.805 61.9323C514.01 61.6816 514.117 61.3982 514.126 61.0823C514.136 60.7663 514.032 60.404 513.815 59.9955C513.594 59.58 513.35 59.2879 513.082 59.1192C512.815 58.9505 512.522 58.8842 512.204 58.9202C511.892 58.9526 511.557 59.0645 511.197 59.2559C510.622 59.5615 510.252 59.9356 510.088 60.3783C509.92 60.814 509.983 61.3088 510.278 61.8628L510.081 61.9677L509.4 60.8638L509.67 60.7203C509.52 60.1873 509.553 59.69 509.77 59.2285C509.99 58.7564 510.401 58.3602 511.003 58.0399C511.536 57.7564 512.051 57.6295 512.546 57.6592C513.038 57.6819 513.487 57.8426 513.895 58.1411C514.302 58.4396 514.649 58.8589 514.937 59.399C515.216 59.9253 515.368 60.4442 515.391 60.9558C515.418 61.4569 515.305 61.921 515.053 62.3483C514.803 62.765 514.409 63.117 513.869 63.4042ZM512.592 66.2147L511.47 66.8111L507.787 59.8834L508.815 59.3366L509.676 60.9569L509.842 61.0422L512.592 66.2147ZM520.421 59.9202C519.846 60.2258 519.3 60.3342 518.782 60.2454C518.264 60.1567 517.828 59.9045 517.474 59.4888L517.235 59.6159L516.683 58.5772L516.88 58.4723C517.064 58.8185 517.293 59.0741 517.568 59.2392C517.838 59.3973 518.136 59.4652 518.462 59.443C518.791 59.4102 519.135 59.2981 519.496 59.1067C519.869 58.9078 520.157 58.6884 520.358 58.4483C520.562 58.1976 520.669 57.9143 520.679 57.5983C520.688 57.2823 520.584 56.92 520.367 56.5115C520.146 56.0961 519.902 55.804 519.635 55.6353C519.367 55.4665 519.075 55.4002 518.756 55.4362C518.445 55.4686 518.109 55.5805 517.749 55.772C517.174 56.0775 516.805 56.4516 516.641 56.8943C516.472 57.33 516.536 57.8249 516.83 58.3788L516.633 58.4837L515.953 57.3799L516.223 57.2363C516.073 56.7033 516.106 56.206 516.322 55.7445C516.542 55.2724 516.953 54.8762 517.555 54.5559C518.089 54.2724 518.603 54.1455 519.098 54.1752C519.59 54.198 520.04 54.3586 520.447 54.6571C520.854 54.9557 521.202 55.375 521.489 55.9151C521.769 56.4413 521.92 56.9603 521.944 57.4719C521.97 57.9729 521.857 58.4371 521.605 58.8644C521.356 59.2811 520.961 59.633 520.421 59.9202ZM519.144 62.7307L518.023 63.3272L514.339 56.3994L515.367 55.8527L516.229 57.473L516.394 57.5583L519.144 62.7307Z" fill="white"/>
<g clip-path="url(#clip1_1_50)">
<path d="M110.061 265.476C108.149 266.492 105.775 265.767 104.758 263.854L103.053 260.649C102.926 260.41 102.863 260.291 102.847 260.176C102.82 259.985 102.879 259.792 103.008 259.648C103.085 259.563 103.205 259.499 103.444 259.372L108.701 256.577C108.94 256.45 109.059 256.386 109.173 256.37C109.365 256.343 109.558 256.402 109.702 256.532C109.787 256.609 109.851 256.728 109.978 256.967L111.682 260.173C112.699 262.085 111.973 264.459 110.061 265.476ZM110.061 265.476L110.981 267.207M110.148 257.288L111.591 256.521C111.86 256.378 111.994 256.306 112.123 256.294C112.296 256.277 112.468 256.33 112.602 256.44C112.702 256.523 112.773 256.657 112.916 256.926L113.07 257.214C113.355 257.751 113.498 258.019 113.556 258.271C113.713 258.953 113.495 259.668 112.983 260.146C112.794 260.322 112.526 260.464 111.989 260.75M103.224 260.969L101.781 261.736C101.512 261.879 101.378 261.951 101.295 262.051C101.185 262.185 101.132 262.357 101.149 262.529C101.161 262.659 101.233 262.793 101.376 263.062L101.529 263.351C101.815 263.887 101.957 264.156 102.133 264.344C102.611 264.857 103.326 265.075 104.008 264.917C104.26 264.859 104.528 264.717 105.065 264.431M109.58 270.913L114.837 268.117C114.979 268.042 115.033 267.866 114.957 267.724C114.355 266.591 112.948 266.161 111.815 266.764L110.148 267.65C109.015 268.252 108.585 269.659 109.187 270.792C109.262 270.934 109.438 270.988 109.58 270.913Z" stroke="#FF5555" stroke-width="1.30704" stroke-linecap="round" stroke-linejoin="round"/>
</g>
<circle cx="109.141" cy="263.745" r="15.3578" transform="rotate(-28 109.141 263.745)" stroke="#FF5555" stroke-width="0.653521"/>
<path d="M131.427 245.894L129.682 246.822L129.025 238.245L131.248 237.063L138.012 242.393L136.225 243.343L131.945 239.903L130.945 239.049L130.831 239.11L130.979 240.417L131.427 245.894ZM135.429 241.794L130.526 244.401L129.781 242.999L134.683 240.392L135.429 241.794ZM141.204 240.829C140.615 241.142 140.04 241.305 139.479 241.319C138.919 241.333 138.41 241.204 137.954 240.931C137.502 240.648 137.13 240.233 136.839 239.686C136.544 239.132 136.408 238.591 136.43 238.065C136.455 237.527 136.63 237.03 136.956 236.573C137.281 236.116 137.738 235.73 138.327 235.417C138.887 235.119 139.429 234.951 139.951 234.914C140.472 234.876 140.941 234.964 141.357 235.178C141.769 235.386 142.095 235.714 142.334 236.164L142.411 236.31L140.864 237.133L140.82 237.05C140.643 236.717 140.405 236.546 140.107 236.536C139.805 236.519 139.449 236.619 139.041 236.836C138.577 237.083 138.286 237.362 138.167 237.674C138.056 237.982 138.129 238.378 138.387 238.863C138.637 239.334 138.923 239.612 139.244 239.699C139.569 239.775 139.963 239.69 140.427 239.443C140.836 239.226 141.119 238.991 141.278 238.738C141.433 238.478 141.422 238.182 141.245 237.849L141.201 237.766L142.748 236.943L142.826 237.089C143.065 237.539 143.157 237.996 143.102 238.461C143.043 238.918 142.853 239.353 142.53 239.764C142.207 240.176 141.765 240.531 141.204 240.829ZM150.471 235.768L148.913 236.597L147.466 233.875C147.234 233.439 146.968 233.19 146.668 233.127C146.372 233.054 145.978 233.148 145.486 233.409C145.14 233.593 144.892 233.787 144.743 233.991C144.594 234.195 144.529 234.416 144.549 234.654C144.565 234.885 144.651 235.146 144.805 235.437L144.577 235.558L144.062 234.54L144.353 234.385C144.25 234.058 144.21 233.724 144.233 233.383C144.256 233.042 144.371 232.714 144.577 232.401C144.79 232.083 145.118 231.806 145.561 231.571C146.025 231.324 146.462 231.211 146.873 231.233C147.284 231.254 147.651 231.383 147.973 231.621C148.294 231.858 148.562 232.178 148.775 232.58L150.471 235.768ZM146.192 238.044L144.634 238.872L140.933 231.913L142.491 231.085L146.192 238.044ZM152.815 234.522L151.257 235.35L148.49 230.147L150.048 229.318L152.815 234.522ZM149.767 228.789L148.209 229.617L147.557 228.391L149.115 227.563L149.767 228.789ZM156.448 232.723C155.874 233.029 155.313 233.202 154.767 233.244C154.221 233.286 153.72 233.17 153.264 232.898C152.808 232.625 152.418 232.184 152.094 231.574C151.799 231.02 151.667 230.478 151.695 229.948C151.721 229.41 151.889 228.917 152.2 228.467C152.519 228.013 152.965 227.634 153.54 227.328C154.108 227.026 154.655 226.86 155.18 226.829C155.712 226.795 156.198 226.906 156.635 227.161C157.07 227.41 157.43 227.804 157.718 228.345C157.765 228.435 157.806 228.519 157.84 228.599C157.873 228.679 157.907 228.768 157.941 228.865L153.267 231.35L152.831 230.53L156.404 228.63L156.321 229.327C156.285 229.258 156.25 229.192 156.216 229.129C156.183 229.067 156.15 229.005 156.117 228.942C155.907 228.548 155.649 228.321 155.342 228.262C155.035 228.203 154.64 228.302 154.155 228.56C153.629 228.84 153.317 229.139 153.22 229.457C153.119 229.768 153.186 230.146 153.422 230.589L153.632 230.983C153.867 231.427 154.144 231.697 154.462 231.794C154.777 231.884 155.201 231.788 155.734 231.504C156.191 231.261 156.482 231.031 156.606 230.814C156.73 230.597 156.734 230.378 156.616 230.156L156.561 230.052L158.118 229.224L158.179 229.338C158.378 229.712 158.441 230.105 158.367 230.517C158.293 230.93 158.092 231.329 157.765 231.717C157.441 232.093 157.002 232.429 156.448 232.723ZM163.732 228.717L161.811 229.739L156.676 225.794L158.411 224.872L161.929 227.731L162.033 227.675L161.641 223.154L163.344 222.249L163.732 228.717ZM169.34 225.868C168.766 226.174 168.205 226.348 167.659 226.389C167.113 226.431 166.612 226.316 166.156 226.043C165.7 225.77 165.31 225.329 164.986 224.72C164.691 224.166 164.558 223.624 164.587 223.093C164.612 222.556 164.781 222.062 165.092 221.612C165.411 221.159 165.857 220.779 166.432 220.474C167 220.172 167.546 220.005 168.072 219.975C168.604 219.94 169.089 220.051 169.527 220.307C169.961 220.555 170.322 220.95 170.609 221.49C170.657 221.58 170.698 221.665 170.732 221.745C170.765 221.825 170.799 221.913 170.833 222.011L166.159 224.496L165.723 223.675L169.296 221.775L169.213 222.472C169.176 222.403 169.141 222.337 169.108 222.275C169.075 222.212 169.042 222.15 169.009 222.088C168.799 221.693 168.541 221.466 168.234 221.407C167.927 221.348 167.532 221.448 167.047 221.705C166.521 221.985 166.209 222.284 166.112 222.602C166.011 222.914 166.078 223.291 166.314 223.734L166.523 224.129C166.759 224.572 167.036 224.842 167.354 224.939C167.669 225.03 168.092 224.933 168.626 224.65C169.083 224.407 169.373 224.177 169.498 223.959C169.622 223.742 169.625 223.523 169.508 223.301L169.452 223.198L171.01 222.369L171.071 222.483C171.27 222.857 171.332 223.25 171.258 223.663C171.185 224.075 170.984 224.475 170.657 224.862C170.333 225.238 169.894 225.574 169.34 225.868ZM182.243 218.875L180.685 219.703L179.238 216.982C179.01 216.552 178.762 216.294 178.493 216.206C178.224 216.118 177.864 216.193 177.414 216.433C176.944 216.683 176.675 216.955 176.609 217.247C176.549 217.537 176.639 217.906 176.878 218.356L176.681 218.461L176.037 217.551L176.339 217.391C176.222 217.071 176.165 216.746 176.167 216.417C176.176 216.083 176.277 215.763 176.469 215.457C176.665 215.139 176.984 214.863 177.427 214.627C177.877 214.388 178.295 214.281 178.682 214.307C179.075 214.328 179.428 214.456 179.739 214.69C180.05 214.925 180.31 215.239 180.52 215.634L182.243 218.875ZM174.308 223.094L172.75 223.922L169.983 218.719L171.427 217.951L172.288 219.571L172.43 219.562L174.308 223.094ZM178.276 220.984L176.718 221.813L175.271 219.091C175.043 218.662 174.794 218.403 174.525 218.315C174.256 218.227 173.897 218.303 173.447 218.542C172.969 218.796 172.7 219.068 172.641 219.357C172.582 219.646 172.672 220.016 172.911 220.466L172.713 220.571L172.069 219.635L172.349 219.485C172.243 219.169 172.193 218.849 172.199 218.526C172.201 218.196 172.295 217.88 172.481 217.577C172.662 217.267 172.971 216.997 173.407 216.765C173.858 216.525 174.274 216.424 174.658 216.46C175.048 216.492 175.395 216.627 175.699 216.865C176.003 217.103 176.257 217.412 176.459 217.793L176.553 217.744L178.276 220.984ZM185.853 217.088C185.278 217.394 184.718 217.568 184.172 217.609C183.625 217.651 183.124 217.536 182.668 217.263C182.213 216.99 181.823 216.549 181.499 215.94C181.204 215.386 181.071 214.844 181.1 214.313C181.125 213.776 181.294 213.282 181.605 212.832C181.923 212.379 182.37 211.999 182.945 211.694C183.512 211.392 184.059 211.225 184.585 211.195C185.117 211.16 185.602 211.271 186.04 211.527C186.474 211.775 186.835 212.17 187.122 212.71C187.17 212.8 187.211 212.885 187.244 212.965C187.278 213.044 187.312 213.133 187.346 213.23L182.672 215.716L182.236 214.895L185.808 212.995L185.726 213.692C185.689 213.623 185.654 213.557 185.621 213.495C185.588 213.432 185.555 213.37 185.522 213.308C185.312 212.913 185.053 212.686 184.747 212.627C184.44 212.568 184.044 212.668 183.56 212.925C183.033 213.205 182.722 213.504 182.624 213.822C182.523 214.134 182.591 214.511 182.826 214.954L183.036 215.349C183.272 215.792 183.549 216.062 183.867 216.159C184.181 216.25 184.605 216.153 185.138 215.87C185.595 215.627 185.886 215.397 186.011 215.179C186.135 214.962 186.138 214.743 186.02 214.521L185.965 214.418L187.523 213.589L187.584 213.703C187.783 214.077 187.845 214.47 187.771 214.883C187.697 215.295 187.497 215.695 187.17 216.082C186.846 216.458 186.407 216.794 185.853 217.088ZM195.017 212.083L193.459 212.911L192.012 210.19C191.788 209.767 191.53 209.518 191.241 209.441C190.948 209.357 190.562 209.442 190.084 209.696C189.586 209.961 189.291 210.251 189.201 210.565C189.114 210.869 189.188 211.243 189.424 211.686L189.226 211.791L188.593 210.875L188.884 210.721C188.778 210.404 188.736 210.075 188.759 209.734C188.778 209.387 188.891 209.056 189.097 208.742C189.307 208.417 189.64 208.134 190.097 207.891C190.568 207.64 191.009 207.526 191.42 207.547C191.827 207.561 192.19 207.684 192.508 207.915C192.826 208.145 193.088 208.454 193.294 208.842L195.017 212.083ZM190.821 214.314L189.263 215.142L186.496 209.939L187.94 209.171L188.801 210.791L188.943 210.782L190.821 214.314ZM199.472 209.714L198.184 210.399C197.574 210.723 197.017 210.828 196.513 210.714C196.008 210.601 195.581 210.215 195.231 209.557L192.928 205.226L194.486 204.398L196.695 208.552C196.835 208.815 196.985 208.962 197.143 208.994C197.305 209.014 197.521 208.953 197.791 208.809L198.726 208.312L199.472 209.714ZM197.39 205.798L193.328 207.958L192.644 206.67L196.705 204.51L197.39 205.798ZM202.738 208.11C201.866 208.574 201.107 208.769 200.464 208.694C199.816 208.612 199.332 208.269 199.012 207.667L198.995 207.636L200.553 206.808L200.603 206.901C200.728 207.136 200.896 207.251 201.106 207.246C201.32 207.23 201.648 207.105 202.091 206.869C202.507 206.648 202.762 206.468 202.857 206.329C202.955 206.179 202.963 206.028 202.882 205.876C202.805 205.73 202.699 205.657 202.566 205.657C202.429 205.65 202.197 205.707 201.87 205.827L200.312 206.429C199.763 206.65 199.284 206.718 198.875 206.634C198.473 206.546 198.154 206.28 197.919 205.837C197.757 205.532 197.701 205.211 197.752 204.873C197.8 204.528 197.972 204.183 198.269 203.839C198.568 203.484 199.016 203.148 199.612 202.832C200.179 202.53 200.699 202.347 201.171 202.282C201.646 202.207 202.063 202.256 202.422 202.43C202.781 202.603 203.072 202.901 203.297 203.323L203.314 203.355L201.756 204.183L201.722 204.121C201.645 203.975 201.551 203.874 201.441 203.817C201.334 203.75 201.181 203.738 200.983 203.781C200.791 203.821 200.535 203.926 200.217 204.095C199.829 204.301 199.59 204.478 199.499 204.624C199.404 204.763 199.401 204.916 199.489 205.082C199.559 205.213 199.664 205.286 199.805 205.3C199.949 205.304 200.203 205.239 200.568 205.107L201.752 204.651C202.484 204.359 203.061 204.257 203.48 204.345C203.9 204.433 204.224 204.691 204.452 205.121C204.625 205.446 204.673 205.785 204.594 206.138C204.515 206.491 204.322 206.838 204.015 207.179C203.704 207.513 203.278 207.823 202.738 208.11Z" fill="white"/>
<path d="M142.832 260.554L138.792 262.703L135.092 255.744L138.987 253.673C139.437 253.434 139.853 253.297 140.234 253.263C140.623 253.225 140.968 253.29 141.271 253.458C141.58 253.622 141.832 253.887 142.027 254.254C142.245 254.663 142.307 255.074 142.216 255.486C142.132 255.895 141.839 256.273 141.339 256.619L141.378 256.691C142.01 256.444 142.553 256.395 143.006 256.545C143.455 256.689 143.801 256.989 144.044 257.446C144.254 257.84 144.349 258.229 144.331 258.612C144.312 258.995 144.177 259.351 143.926 259.68C143.675 260.009 143.31 260.3 142.832 260.554ZM138.247 258.996L139.368 261.104L142.172 259.613C142.588 259.392 142.851 259.145 142.964 258.872C143.08 258.589 143.038 258.26 142.839 257.886C142.644 257.519 142.4 257.311 142.108 257.263C141.819 257.203 141.466 257.284 141.051 257.505L138.247 258.996ZM136.739 256.16L137.755 258.071L140.383 256.674C140.778 256.464 141.031 256.232 141.144 255.976C141.253 255.714 141.222 255.42 141.049 255.095C140.875 254.769 140.655 254.58 140.387 254.527C140.115 254.467 139.786 254.54 139.398 254.747L136.739 256.16ZM148.444 257.704C147.883 258.002 147.336 258.16 146.803 258.177C146.27 258.193 145.78 258.064 145.331 257.787C144.889 257.507 144.517 257.083 144.215 256.515C143.927 255.975 143.791 255.444 143.806 254.921C143.828 254.394 143.988 253.909 144.286 253.467C144.58 253.017 145.007 252.643 145.568 252.345C146.101 252.062 146.62 251.91 147.125 251.891C147.633 251.86 148.095 251.97 148.512 252.219C148.932 252.457 149.281 252.84 149.561 253.366C149.609 253.456 149.652 253.545 149.689 253.631C149.723 253.711 149.753 253.793 149.779 253.876L145.064 256.384L144.733 255.76L148.711 253.645L148.624 254.184C148.594 254.111 148.563 254.044 148.529 253.981C148.493 253.912 148.456 253.843 148.419 253.774C148.165 253.296 147.839 253.016 147.44 252.935C147.045 252.843 146.57 252.945 146.017 253.239C145.4 253.567 145.036 253.943 144.924 254.366C144.812 254.79 144.897 255.269 145.181 255.802L145.324 256.072C145.612 256.612 145.962 256.954 146.376 257.098C146.79 257.242 147.309 257.148 147.932 256.817C148.472 256.53 148.816 256.241 148.963 255.949C149.113 255.647 149.107 255.344 148.945 255.039L148.901 254.956L150.023 254.36L150.073 254.453C150.268 254.82 150.327 255.206 150.249 255.612C150.175 256.007 149.983 256.388 149.673 256.758C149.366 257.116 148.956 257.432 148.444 257.704ZM154.394 254.54C153.563 254.982 152.835 255.165 152.208 255.09C151.589 255.01 151.121 254.673 150.804 254.078L150.788 254.046L151.909 253.45L151.953 253.533C152.134 253.872 152.37 254.049 152.661 254.063C152.956 254.066 153.374 253.924 153.914 253.637C154.419 253.368 154.734 253.134 154.859 252.934C154.987 252.724 154.99 252.504 154.869 252.276C154.755 252.061 154.601 251.948 154.408 251.935C154.221 251.919 153.928 251.986 153.529 252.136L152.017 252.7C151.492 252.899 151.034 252.965 150.643 252.898C150.248 252.823 149.935 252.568 149.703 252.132C149.541 251.827 149.489 251.513 149.548 251.188C149.603 250.857 149.775 250.53 150.065 250.207C150.355 249.884 150.763 249.583 151.29 249.303C151.816 249.023 152.303 248.853 152.75 248.793C153.205 248.729 153.606 248.782 153.954 248.952C154.309 249.119 154.595 249.406 154.813 249.815L154.829 249.846L153.718 250.437L153.685 250.374C153.578 250.174 153.446 250.026 153.289 249.932C153.133 249.837 152.929 249.813 152.677 249.858C152.429 249.892 152.114 250.01 151.733 250.213C151.256 250.467 150.953 250.699 150.825 250.909C150.697 251.119 150.697 251.346 150.826 251.588C150.933 251.789 151.079 251.897 151.266 251.914C151.452 251.93 151.75 251.865 152.161 251.718L153.443 251.249C154.093 251.001 154.622 250.91 155.031 250.977C155.44 251.044 155.758 251.292 155.986 251.722C156.156 252.04 156.203 252.371 156.127 252.713C156.048 253.048 155.861 253.374 155.567 253.69C155.27 253.999 154.879 254.282 154.394 254.54ZM160.944 250.924L159.76 251.554C159.206 251.848 158.694 251.947 158.225 251.85C157.763 251.75 157.367 251.388 157.035 250.764L154.616 246.215L155.728 245.624L158.113 250.111C158.283 250.43 158.473 250.604 158.684 250.634C158.892 250.657 159.155 250.583 159.473 250.414L160.408 249.917L160.944 250.924ZM158.696 246.697L154.843 248.746L154.346 247.811L158.199 245.762L158.696 246.697ZM164.542 249.011L163.421 249.608L159.72 242.649L160.842 242.052L164.542 249.011ZM167.315 243.953L162.278 246.631L161.748 245.634L166.785 242.956L167.315 243.953ZM165.792 240.713L160.599 243.474L160.063 242.466L165.256 239.705L165.792 240.713ZM170.912 245.624L169.79 246.221L167.046 241.059L168.167 240.462L170.912 245.624ZM167.847 239.86L166.725 240.456L166.09 239.262L167.212 238.665L167.847 239.86ZM177.341 242.206L176.22 242.802L174.729 239.998C174.471 239.513 174.16 239.212 173.796 239.095C173.438 238.974 172.989 239.057 172.449 239.344C171.888 239.643 171.55 240.009 171.435 240.443C171.323 240.867 171.416 241.36 171.714 241.92L171.522 242.036L170.929 241.045L171.158 240.924C171.058 240.604 171.024 240.271 171.054 239.927C171.087 239.572 171.21 239.235 171.423 238.918C171.639 238.589 171.966 238.309 172.402 238.077C172.88 237.823 173.329 237.709 173.751 237.733C174.173 237.758 174.546 237.892 174.871 238.137C175.204 238.377 175.477 238.699 175.69 239.1L177.341 242.206ZM173.073 244.475L171.951 245.072L169.206 239.91L170.234 239.363L171.096 240.983L171.217 240.986L173.073 244.475ZM183.223 239.079L182.194 239.625L181.487 238.296L181.398 238.303L180.459 236.538C180.231 236.108 179.969 235.866 179.673 235.81C179.38 235.744 178.984 235.843 178.486 236.108C178.008 236.362 177.695 236.635 177.548 236.926C177.401 237.218 177.429 237.554 177.632 237.935L177.654 237.976L176.542 238.567L176.52 238.526C176.31 238.131 176.228 237.726 176.274 237.311C176.316 236.889 176.483 236.485 176.775 236.098C177.074 235.709 177.497 235.368 178.044 235.077C178.591 234.786 179.087 234.642 179.533 234.645C179.982 234.638 180.374 234.749 180.71 234.979C181.052 235.205 181.334 235.526 181.555 235.942L183.223 239.079ZM179.913 240.972C179.379 241.255 178.891 241.364 178.447 241.298C178.007 241.221 177.674 240.972 177.45 240.549C177.306 240.279 177.252 240.019 177.288 239.769C177.327 239.509 177.444 239.26 177.638 239.024C177.832 238.787 178.087 238.558 178.405 238.336L180.718 236.773L181.071 237.438L179.069 238.809C178.797 238.998 178.612 239.177 178.514 239.344C178.42 239.501 178.426 239.679 178.533 239.88C178.643 240.088 178.799 240.205 178.999 240.232C179.203 240.248 179.465 240.171 179.783 240.001C180.178 239.792 180.495 239.561 180.734 239.309C180.97 239.051 181.113 238.77 181.165 238.467C181.217 238.164 181.153 237.843 180.973 237.504L181.129 237.447L181.582 238.299L181.437 238.376C181.53 238.886 181.446 239.37 181.184 239.83C180.925 240.278 180.501 240.659 179.913 240.972ZM189.614 235.68L188.493 236.276L187.002 233.472C186.744 232.987 186.433 232.686 186.069 232.569C185.711 232.448 185.263 232.532 184.722 232.819C184.162 233.117 183.823 233.483 183.708 233.918C183.596 234.341 183.689 234.834 183.987 235.395L183.795 235.51L183.202 234.52L183.431 234.398C183.331 234.078 183.297 233.746 183.327 233.401C183.36 233.046 183.483 232.709 183.696 232.392C183.912 232.064 184.239 231.784 184.675 231.552C185.153 231.298 185.602 231.183 186.024 231.207C186.446 231.232 186.819 231.366 187.144 231.611C187.477 231.852 187.75 232.173 187.963 232.574L189.614 235.68ZM185.346 237.95L184.224 238.546L181.479 233.384L182.507 232.837L183.369 234.458L183.49 234.46L185.346 237.95ZM193.276 233.866C192.708 234.168 192.154 234.321 191.614 234.324C191.07 234.32 190.574 234.179 190.125 233.903C189.679 233.616 189.316 233.209 189.037 232.683C188.749 232.143 188.613 231.611 188.628 231.088C188.65 230.562 188.813 230.075 189.118 229.629C189.419 229.176 189.853 228.798 190.421 228.496C190.94 228.22 191.449 228.065 191.946 228.032C192.443 227.998 192.893 228.084 193.294 228.288C193.699 228.481 194.017 228.796 194.249 229.232L194.305 229.336L193.193 229.927L193.16 229.864C192.947 229.463 192.65 229.239 192.27 229.192C191.886 229.139 191.441 229.246 190.936 229.515C190.354 229.824 190.004 230.193 189.885 230.62C189.762 231.041 189.85 231.531 190.148 232.092C190.443 232.646 190.8 232.993 191.221 233.134C191.639 233.267 192.138 233.179 192.72 232.87C193.225 232.601 193.565 232.296 193.739 231.955C193.909 231.607 193.887 231.232 193.674 230.83L193.635 230.758L194.746 230.167L194.807 230.281C195.035 230.71 195.118 231.15 195.056 231.601C195.001 232.048 194.82 232.468 194.514 232.862C194.208 233.255 193.796 233.59 193.276 233.866ZM199.382 230.62C198.821 230.918 198.274 231.075 197.742 231.092C197.209 231.109 196.718 230.979 196.269 230.703C195.827 230.423 195.455 229.999 195.153 229.431C194.866 228.891 194.73 228.359 194.745 227.836C194.766 227.309 194.926 226.825 195.224 226.382C195.518 225.933 195.945 225.559 196.506 225.261C197.039 224.977 197.558 224.826 198.063 224.806C198.571 224.776 199.033 224.885 199.45 225.135C199.87 225.373 200.22 225.756 200.5 226.282C200.547 226.372 200.59 226.46 200.627 226.547C200.661 226.627 200.691 226.708 200.718 226.792L196.002 229.299L195.671 228.676L199.649 226.561L199.562 227.1C199.532 227.027 199.501 226.959 199.468 226.897C199.431 226.828 199.394 226.759 199.357 226.689C199.103 226.211 198.777 225.932 198.379 225.851C197.983 225.759 197.509 225.86 196.955 226.155C196.339 226.482 195.974 226.858 195.862 227.282C195.75 227.706 195.836 228.184 196.119 228.717L196.263 228.988C196.55 229.528 196.9 229.87 197.315 230.014C197.729 230.158 198.247 230.064 198.87 229.733C199.411 229.445 199.754 229.156 199.901 228.865C200.051 228.563 200.046 228.26 199.884 227.955L199.839 227.872L200.961 227.275L201.011 227.369C201.206 227.736 201.265 228.122 201.187 228.527C201.113 228.922 200.921 229.304 200.611 229.673C200.304 230.032 199.894 230.347 199.382 230.62ZM205.338 227.319L204.092 227.982L203.497 219.372L205.076 218.532L211.882 223.84L210.615 224.514L205.8 220.746L204.87 219.974L204.787 220.018L204.907 221.221L205.338 227.319ZM209.311 222.889L204.668 225.358L204.133 224.35L208.775 221.881L209.311 222.889ZM215.739 221.923C215.164 222.228 214.617 222.337 214.1 222.248C213.582 222.159 213.146 221.907 212.791 221.491L212.552 221.618L212 220.58L212.198 220.475C212.382 220.821 212.611 221.077 212.885 221.242C213.156 221.4 213.454 221.468 213.779 221.446C214.108 221.413 214.453 221.301 214.813 221.109C215.187 220.91 215.474 220.691 215.675 220.451C215.88 220.2 215.986 219.917 215.996 219.601C216.006 219.285 215.902 218.923 215.685 218.514C215.464 218.099 215.22 217.807 214.952 217.638C214.685 217.469 214.392 217.403 214.074 217.439C213.762 217.471 213.427 217.583 213.067 217.775C212.492 218.08 212.122 218.454 211.958 218.897C211.79 219.333 211.853 219.827 212.148 220.381L211.95 220.486L211.27 219.382L211.54 219.239C211.39 218.706 211.423 218.209 211.64 217.747C211.859 217.275 212.271 216.879 212.873 216.558C213.406 216.275 213.92 216.148 214.416 216.178C214.908 216.201 215.357 216.361 215.765 216.66C216.172 216.958 216.519 217.378 216.806 217.918C217.086 218.444 217.238 218.963 217.261 219.474C217.288 219.975 217.175 220.44 216.922 220.867C216.673 221.284 216.279 221.636 215.739 221.923ZM214.462 224.733L213.34 225.33L209.656 218.402L210.685 217.855L211.546 219.476L211.712 219.561L214.462 224.733ZM222.291 218.439C221.716 218.744 221.17 218.853 220.652 218.764C220.134 218.675 219.698 218.423 219.344 218.007L219.105 218.134L218.553 217.096L218.75 216.991C218.934 217.337 219.163 217.593 219.437 217.758C219.708 217.916 220.006 217.984 220.332 217.962C220.661 217.929 221.005 217.817 221.365 217.625C221.739 217.426 222.027 217.207 222.228 216.967C222.432 216.716 222.539 216.433 222.549 216.117C222.558 215.801 222.454 215.439 222.237 215.03C222.016 214.615 221.772 214.323 221.505 214.154C221.237 213.985 220.945 213.919 220.626 213.955C220.315 213.987 219.979 214.099 219.619 214.291C219.044 214.596 218.675 214.97 218.51 215.413C218.342 215.849 218.406 216.343 218.7 216.897L218.503 217.002L217.823 215.898L218.093 215.755C217.943 215.222 217.976 214.725 218.192 214.263C218.412 213.791 218.823 213.395 219.425 213.075C219.959 212.791 220.473 212.664 220.968 212.694C221.46 212.717 221.91 212.877 222.317 213.176C222.724 213.474 223.072 213.894 223.359 214.434C223.639 214.96 223.79 215.479 223.814 215.99C223.84 216.492 223.727 216.956 223.475 217.383C223.226 217.8 222.831 218.152 222.291 218.439ZM221.014 221.249L219.892 221.846L216.209 214.918L217.237 214.371L218.099 215.992L218.264 216.077L221.014 221.249ZM230.753 213.939C230.026 214.326 229.312 214.519 228.61 214.519C227.912 214.509 227.269 214.318 226.68 213.947C226.096 213.565 225.61 213.01 225.223 212.283C224.837 211.556 224.65 210.847 224.665 210.155C224.682 209.453 224.884 208.813 225.269 208.235C225.658 207.647 226.216 207.159 226.943 206.773C227.684 206.379 228.403 206.187 229.102 206.198C229.796 206.201 230.436 206.394 231.021 206.776C231.609 207.147 232.097 207.696 232.483 208.423C232.87 209.15 233.054 209.865 233.037 210.567C233.023 211.258 232.825 211.896 232.443 212.481C232.057 213.059 231.494 213.545 230.753 213.939ZM230.179 212.859C230.726 212.568 231.134 212.24 231.402 211.876C231.673 211.501 231.801 211.082 231.786 210.619C231.767 210.149 231.605 209.627 231.299 209.053C230.99 208.471 230.648 208.044 230.273 207.773C229.897 207.502 229.48 207.377 229.021 207.399C228.566 207.411 228.064 207.562 227.517 207.853C226.97 208.144 226.561 208.477 226.29 208.852C226.022 209.216 225.895 209.63 225.91 210.093C225.932 210.552 226.098 211.072 226.407 211.654C226.713 212.228 227.052 212.657 227.424 212.939C227.799 213.21 228.214 213.34 228.67 213.328C229.129 213.306 229.632 213.15 230.179 212.859ZM240.553 208.596L239.431 209.192L237.94 206.388C237.682 205.903 237.371 205.602 237.007 205.485C236.649 205.364 236.201 205.447 235.661 205.734C235.1 206.033 234.762 206.399 234.646 206.833C234.534 207.257 234.627 207.749 234.925 208.31L234.733 208.426L234.14 207.435L234.369 207.314C234.27 206.994 234.235 206.661 234.265 206.317C234.298 205.961 234.421 205.625 234.634 205.308C234.851 204.979 235.177 204.699 235.613 204.467C236.091 204.213 236.541 204.099 236.962 204.123C237.384 204.148 237.757 204.282 238.083 204.527C238.415 204.767 238.688 205.088 238.901 205.49L240.553 208.596ZM236.284 210.865L235.162 211.462L232.417 206.3L233.446 205.753L234.307 207.373L234.428 207.376L236.284 210.865ZM245.618 203.211L242.638 204.796L242.102 203.788L244.979 202.259C245.505 201.979 245.843 201.662 245.992 201.307C246.148 200.949 246.088 200.51 245.811 199.991C245.539 199.478 245.211 199.187 244.826 199.116C244.446 199.034 243.992 199.133 243.466 199.413L240.589 200.942L240.053 199.935L243.034 198.35C243.553 198.074 244.058 197.93 244.549 197.917C245.043 197.894 245.493 198.006 245.899 198.252C246.312 198.494 246.657 198.875 246.933 199.394C247.206 199.907 247.327 200.402 247.297 200.88C247.273 201.354 247.116 201.793 246.824 202.197C246.54 202.597 246.138 202.935 245.618 203.211ZM244.449 206.524L243.327 207.12L239.627 200.161L240.749 199.565L244.449 206.524ZM251.133 202.97L250.012 203.566L246.311 196.607L247.433 196.011L251.133 202.97ZM257.054 199.822L256.025 200.369L255.318 199.039L255.229 199.047L254.29 197.281C254.062 196.852 253.8 196.609 253.504 196.553C253.211 196.487 252.815 196.586 252.317 196.852C251.839 197.106 251.527 197.378 251.379 197.67C251.232 197.961 251.26 198.297 251.463 198.678L251.485 198.72L250.373 199.31L250.351 199.269C250.141 198.874 250.059 198.469 250.105 198.054C250.147 197.632 250.314 197.228 250.606 196.842C250.905 196.452 251.328 196.112 251.875 195.821C252.422 195.53 252.918 195.386 253.364 195.389C253.813 195.381 254.205 195.492 254.541 195.722C254.883 195.949 255.165 196.27 255.386 196.685L257.054 199.822ZM253.744 201.715C253.21 201.999 252.722 202.107 252.278 202.041C251.838 201.965 251.505 201.715 251.281 201.293C251.137 201.023 251.083 200.763 251.119 200.513C251.158 200.252 251.275 200.004 251.469 199.767C251.663 199.531 251.918 199.302 252.236 199.08L254.549 197.517L254.902 198.181L252.9 199.552C252.628 199.742 252.443 199.92 252.345 200.087C252.251 200.244 252.257 200.423 252.364 200.624C252.474 200.831 252.63 200.948 252.83 200.975C253.034 200.991 253.296 200.914 253.614 200.745C254.009 200.535 254.326 200.304 254.565 200.053C254.801 199.794 254.944 199.513 254.996 199.21C255.049 198.907 254.984 198.586 254.804 198.247L254.96 198.19L255.413 199.042L255.268 199.119C255.361 199.629 255.277 200.114 255.015 200.573C254.756 201.021 254.332 201.402 253.744 201.715ZM259.825 200.613L259.087 201.006L258.546 199.988L259.554 199.452C259.782 199.33 259.931 199.202 260.002 199.067C260.083 198.935 260.115 198.763 260.099 198.549L260.051 197.682L260.23 198.319L254.791 194.404L256.048 193.735L258.825 195.776L259.991 196.741L260.074 196.697L259.899 195.191L259.662 191.813L260.898 191.156L261.251 198.31C261.274 198.688 261.239 199.013 261.144 199.286C261.053 199.565 260.897 199.808 260.678 200.013C260.462 200.226 260.178 200.426 259.825 200.613ZM266.687 194.833C265.857 195.275 265.128 195.458 264.502 195.382C263.882 195.303 263.414 194.966 263.097 194.37L263.081 194.339L264.203 193.743L264.247 193.826C264.427 194.165 264.663 194.341 264.955 194.355C265.249 194.358 265.667 194.216 266.207 193.929C266.712 193.66 267.028 193.426 267.152 193.227C267.28 193.016 267.284 192.797 267.162 192.569C267.048 192.354 266.894 192.24 266.701 192.228C266.515 192.211 266.222 192.278 265.822 192.428L264.31 192.993C263.785 193.192 263.327 193.257 262.936 193.19C262.542 193.116 262.228 192.861 261.996 192.424C261.834 192.12 261.783 191.805 261.841 191.481C261.896 191.15 262.068 190.823 262.359 190.5C262.649 190.177 263.057 189.875 263.583 189.595C264.109 189.316 264.596 189.146 265.044 189.085C265.498 189.021 265.899 189.074 266.248 189.245C266.603 189.411 266.889 189.699 267.106 190.107L267.122 190.138L266.011 190.729L265.978 190.667C265.871 190.466 265.739 190.319 265.583 190.224C265.426 190.13 265.222 190.105 264.97 190.15C264.722 190.184 264.408 190.303 264.027 190.505C263.549 190.759 263.246 190.991 263.118 191.202C262.99 191.412 262.99 191.638 263.119 191.88C263.226 192.081 263.373 192.19 263.559 192.206C263.745 192.223 264.044 192.157 264.454 192.01L265.737 191.541C266.387 191.293 266.916 191.203 267.324 191.27C267.733 191.337 268.052 191.585 268.28 192.014C268.449 192.333 268.496 192.663 268.42 193.005C268.341 193.341 268.155 193.666 267.861 193.982C267.563 194.292 267.172 194.575 266.687 194.833ZM273.237 191.217L272.053 191.847C271.499 192.141 270.988 192.24 270.519 192.143C270.057 192.042 269.66 191.68 269.329 191.057L266.91 186.508L268.021 185.917L270.407 190.404C270.576 190.722 270.766 190.896 270.978 190.926C271.185 190.949 271.448 190.876 271.767 190.706L272.702 190.209L273.237 191.217ZM270.99 186.99L267.136 189.039L266.639 188.104L270.493 186.055L270.99 186.99ZM276.632 189.545C276.064 189.847 275.504 190.003 274.95 190.013C274.399 190.013 273.895 189.877 273.439 189.604C272.987 189.321 272.621 188.916 272.341 188.39C272.054 187.849 271.921 187.316 271.943 186.789C271.972 186.259 272.142 185.769 272.453 185.319C272.768 184.858 273.209 184.477 273.777 184.175C274.359 183.866 274.925 183.711 275.476 183.712C276.023 183.705 276.521 183.84 276.97 184.116C277.426 184.389 277.797 184.795 278.084 185.336C278.364 185.862 278.492 186.394 278.467 186.931C278.445 187.458 278.28 187.95 277.972 188.406C277.66 188.856 277.214 189.236 276.632 189.545ZM276.102 188.548C276.732 188.213 277.11 187.83 277.236 187.399C277.359 186.961 277.274 186.468 276.984 185.921C276.693 185.374 276.331 185.029 275.9 184.885C275.465 184.735 274.932 184.827 274.302 185.162C273.679 185.493 273.308 185.881 273.189 186.326C273.067 186.765 273.151 187.257 273.442 187.804C273.733 188.351 274.094 188.696 274.525 188.84C274.953 188.977 275.479 188.879 276.102 188.548ZM281.39 186.882L280.268 187.479L277.523 182.316L278.552 181.77L279.33 183.234L279.451 183.236L281.39 186.882ZM279.849 183.984L279.6 184.117L279.136 183.244L279.364 183.123C279.262 182.813 279.224 182.509 279.252 182.21C279.276 181.904 279.374 181.621 279.547 181.361C279.726 181.097 279.992 180.871 280.345 180.683C280.74 180.473 281.106 180.385 281.444 180.419C281.781 180.452 282.079 180.578 282.337 180.796C282.602 181.01 282.821 181.28 282.994 181.606L283.353 182.281L282.242 182.872L281.999 182.415C281.8 182.041 281.572 181.812 281.313 181.727C281.055 181.642 280.732 181.703 280.344 181.909C279.901 182.145 279.647 182.435 279.582 182.781C279.517 183.126 279.606 183.527 279.849 183.984ZM288.184 183.403C287.623 183.701 287.076 183.858 286.544 183.875C286.011 183.892 285.52 183.762 285.071 183.486C284.629 183.206 284.257 182.782 283.955 182.214C283.668 181.674 283.532 181.142 283.547 180.619C283.569 180.093 283.728 179.608 284.026 179.165C284.32 178.716 284.747 178.342 285.308 178.044C285.841 177.76 286.36 177.609 286.865 177.589C287.373 177.559 287.835 177.668 288.252 177.918C288.672 178.156 289.022 178.539 289.302 179.065C289.35 179.155 289.392 179.243 289.429 179.33C289.463 179.41 289.493 179.492 289.52 179.575L284.804 182.082L284.473 181.459L288.451 179.344L288.364 179.883C288.335 179.81 288.303 179.742 288.27 179.68C288.233 179.611 288.196 179.542 288.159 179.472C287.905 178.995 287.579 178.715 287.181 178.634C286.785 178.542 286.311 178.643 285.757 178.938C285.141 179.266 284.776 179.641 284.664 180.065C284.552 180.489 284.638 180.967 284.921 181.501L285.065 181.771C285.352 182.311 285.703 182.653 286.117 182.797C286.531 182.941 287.049 182.847 287.673 182.516C288.213 182.228 288.556 181.939 288.703 181.648C288.854 181.346 288.848 181.043 288.686 180.738L288.642 180.655L289.763 180.058L289.813 180.152C290.008 180.519 290.067 180.905 289.989 181.31C289.915 181.705 289.723 182.087 289.413 182.456C289.106 182.815 288.697 183.13 288.184 183.403Z" fill="white"/>
<line x1="308.912" y1="137.726" x2="307.498" y2="178.219" stroke="white" stroke-width="0.653522"/>
<path d="M468.632 267.299H466.868V259.417H468.632V267.299ZM473.361 264.358H467.362V262.781H473.361V264.358ZM473.537 261.005H467.362V259.417H473.537V261.005ZM476.053 267.299H474.289V261.405H476.053V267.299ZM476.053 260.805H474.289V259.417H476.053V260.805ZM483.494 267.299H481.729V264.217C481.729 263.738 481.619 263.397 481.4 263.193C481.18 262.981 480.8 262.876 480.259 262.876C479.694 262.876 479.298 262.993 479.071 263.228C478.851 263.456 478.741 263.821 478.741 264.322H478.518L478.388 263.217H478.718C478.773 262.887 478.89 262.578 479.071 262.287C479.251 261.989 479.506 261.75 479.835 261.57C480.172 261.382 480.6 261.287 481.117 261.287C481.651 261.287 482.094 261.393 482.447 261.605C482.8 261.809 483.062 262.087 483.235 262.44C483.407 262.793 483.494 263.189 483.494 263.628V267.299ZM478.741 267.299H476.977V261.405H478.612V263.24L478.741 263.299V267.299ZM487.527 267.416C486.86 267.416 486.276 267.291 485.774 267.04C485.272 266.789 484.884 266.436 484.61 265.981C484.343 265.518 484.21 264.977 484.21 264.358C484.21 263.73 484.343 263.189 484.61 262.734C484.884 262.272 485.272 261.915 485.774 261.664C486.276 261.413 486.86 261.287 487.527 261.287C488.162 261.287 488.719 261.393 489.197 261.605C489.676 261.817 490.048 262.115 490.315 262.499C490.582 262.876 490.715 263.319 490.715 263.828V263.993H488.962V263.899C488.962 263.523 488.833 263.26 488.574 263.111C488.315 262.954 487.954 262.876 487.492 262.876C486.966 262.876 486.578 262.985 486.327 263.205C486.084 263.425 485.963 263.809 485.963 264.358C485.963 264.891 486.084 265.271 486.327 265.499C486.578 265.718 486.966 265.828 487.492 265.828C487.954 265.828 488.315 265.754 488.574 265.605C488.833 265.448 488.962 265.181 488.962 264.805V264.711H490.715V264.875C490.715 265.385 490.582 265.832 490.315 266.216C490.048 266.593 489.676 266.887 489.197 267.099C488.719 267.31 488.162 267.416 487.527 267.416ZM494.615 267.416C493.948 267.416 493.36 267.291 492.85 267.04C492.349 266.789 491.956 266.436 491.674 265.981C491.392 265.518 491.251 264.977 491.251 264.358C491.251 263.73 491.392 263.189 491.674 262.734C491.956 262.272 492.349 261.915 492.85 261.664C493.36 261.413 493.948 261.287 494.615 261.287C495.289 261.287 495.878 261.413 496.379 261.664C496.881 261.915 497.273 262.272 497.556 262.734C497.838 263.189 497.979 263.73 497.979 264.358C497.979 264.977 497.838 265.518 497.556 265.981C497.273 266.436 496.881 266.789 496.379 267.04C495.878 267.291 495.289 267.416 494.615 267.416ZM494.615 265.852C495.211 265.852 495.627 265.734 495.862 265.499C496.105 265.256 496.227 264.875 496.227 264.358C496.227 263.832 496.105 263.448 495.862 263.205C495.627 262.962 495.211 262.84 494.615 262.84C494.019 262.84 493.599 262.962 493.356 263.205C493.121 263.448 493.003 263.832 493.003 264.358C493.003 264.875 493.121 265.256 493.356 265.499C493.599 265.734 494.019 265.852 494.615 265.852ZM504.632 265.122H501.127V263.534H504.444C504.938 263.534 505.299 263.448 505.526 263.276C505.761 263.095 505.879 262.758 505.879 262.264C505.879 261.785 505.761 261.456 505.526 261.276C505.299 261.095 504.938 261.005 504.444 261.005H501.127V259.417H504.632C505.244 259.417 505.773 259.531 506.22 259.758C506.667 259.978 507.012 260.299 507.255 260.723C507.506 261.146 507.632 261.66 507.632 262.264C507.632 262.868 507.506 263.385 507.255 263.817C507.012 264.24 506.667 264.566 506.22 264.793C505.773 265.013 505.244 265.122 504.632 265.122ZM502.279 267.299H500.515V259.417H502.279V267.299ZM510.022 267.299H508.258V261.405H509.893V263.087L510.022 263.146V267.299ZM510.022 263.887H509.669V262.97H509.999C510.053 262.648 510.159 262.362 510.316 262.111C510.481 261.852 510.7 261.652 510.975 261.511C511.249 261.362 511.583 261.287 511.975 261.287C512.422 261.287 512.779 261.382 513.045 261.57C513.32 261.75 513.52 261.997 513.645 262.311C513.771 262.617 513.833 262.962 513.833 263.346V264.322H512.069V263.711C512.069 263.381 511.994 263.146 511.845 263.005C511.704 262.856 511.453 262.781 511.093 262.781C510.7 262.781 510.422 262.872 510.257 263.052C510.101 263.232 510.022 263.511 510.022 263.887ZM517.602 267.416C516.951 267.416 516.374 267.306 515.872 267.087C515.37 266.867 514.982 266.53 514.708 266.075C514.433 265.62 514.296 265.048 514.296 264.358C514.296 263.73 514.433 263.189 514.708 262.734C514.982 262.272 515.363 261.915 515.849 261.664C516.343 261.413 516.915 261.287 517.566 261.287C518.209 261.287 518.77 261.397 519.248 261.617C519.735 261.836 520.111 262.162 520.378 262.593C520.644 263.017 520.778 263.534 520.778 264.146C520.778 264.248 520.774 264.342 520.766 264.428C520.758 264.515 520.746 264.609 520.731 264.711H515.437V263.781H519.484L519.084 264.358C519.084 264.279 519.084 264.205 519.084 264.134C519.084 264.064 519.084 263.993 519.084 263.922C519.084 263.475 518.962 263.154 518.719 262.958C518.476 262.762 518.08 262.664 517.531 262.664C516.935 262.664 516.519 262.781 516.284 263.017C516.049 263.244 515.931 263.609 515.931 264.111V264.558C515.931 265.06 516.049 265.428 516.284 265.663C516.519 265.891 516.939 266.005 517.543 266.005C518.06 266.005 518.425 265.938 518.637 265.805C518.848 265.671 518.954 265.479 518.954 265.228V265.111H520.719V265.24C520.719 265.663 520.589 266.04 520.331 266.369C520.072 266.699 519.707 266.957 519.237 267.146C518.774 267.326 518.229 267.416 517.602 267.416ZM532.278 267.299H530.513V264.217C530.513 263.73 530.415 263.385 530.219 263.181C530.023 262.978 529.67 262.876 529.16 262.876C528.627 262.876 528.262 262.989 528.066 263.217C527.878 263.444 527.784 263.813 527.784 264.322H527.561L527.419 263.217H527.76C527.808 262.879 527.909 262.566 528.066 262.276C528.231 261.985 528.47 261.75 528.784 261.57C529.105 261.382 529.517 261.287 530.019 261.287C530.529 261.287 530.948 261.389 531.278 261.593C531.615 261.797 531.866 262.076 532.031 262.429C532.195 262.781 532.278 263.181 532.278 263.628V267.299ZM523.29 267.299H521.526V261.405H523.161V263.24L523.29 263.299V267.299ZM527.784 267.299H526.02V264.217C526.02 263.73 525.921 263.385 525.725 263.181C525.529 262.978 525.176 262.876 524.667 262.876C524.126 262.876 523.761 262.989 523.573 263.217C523.385 263.444 523.29 263.813 523.29 264.322H523.067L522.937 263.193H523.255C523.31 262.864 523.416 262.558 523.573 262.276C523.73 261.985 523.961 261.75 524.267 261.57C524.573 261.382 524.973 261.287 525.467 261.287C525.976 261.287 526.392 261.393 526.714 261.605C527.043 261.817 527.286 262.099 527.443 262.452C527.6 262.805 527.678 263.197 527.678 263.628H527.784V267.299ZM534.939 267.299H533.174V261.405H534.939V267.299ZM534.939 260.805H533.174V259.417H534.939V260.805ZM538.298 267.416C537.749 267.416 537.29 267.314 536.921 267.11C536.56 266.899 536.29 266.616 536.11 266.263C535.937 265.911 535.851 265.514 535.851 265.075V261.405H537.615V264.487C537.615 264.958 537.729 265.303 537.956 265.522C538.184 265.734 538.576 265.84 539.133 265.84C539.713 265.84 540.117 265.726 540.344 265.499C540.58 265.264 540.697 264.895 540.697 264.393L540.921 264.381L541.05 265.499H540.721C540.674 265.828 540.556 266.138 540.368 266.428C540.188 266.718 539.925 266.957 539.58 267.146C539.243 267.326 538.815 267.416 538.298 267.416ZM542.462 267.299H540.815V265.475L540.697 265.416V261.405H542.462V267.299ZM554.116 267.299H552.351V264.217C552.351 263.73 552.253 263.385 552.057 263.181C551.861 262.978 551.508 262.876 550.998 262.876C550.465 262.876 550.1 262.989 549.904 263.217C549.716 263.444 549.622 263.813 549.622 264.322H549.399L549.257 263.217H549.599C549.646 262.879 549.748 262.566 549.904 262.276C550.069 261.985 550.308 261.75 550.622 261.57C550.944 261.382 551.355 261.287 551.857 261.287C552.367 261.287 552.786 261.389 553.116 261.593C553.453 261.797 553.704 262.076 553.869 262.429C554.033 262.781 554.116 263.181 554.116 263.628V267.299ZM545.128 267.299H543.364V261.405H544.999V263.24L545.128 263.299V267.299ZM549.622 267.299H547.858V264.217C547.858 263.73 547.76 263.385 547.564 263.181C547.367 262.978 547.015 262.876 546.505 262.876C545.964 262.876 545.599 262.989 545.411 263.217C545.223 263.444 545.128 263.813 545.128 264.322H544.905L544.776 263.193H545.093C545.148 262.864 545.254 262.558 545.411 262.276C545.568 261.985 545.799 261.75 546.105 261.57C546.411 261.382 546.811 261.287 547.305 261.287C547.814 261.287 548.23 261.393 548.552 261.605C548.881 261.817 549.124 262.099 549.281 262.452C549.438 262.805 549.516 263.197 549.516 263.628H549.622V267.299Z" fill="black"/>
<path d="M468.049 285.904H466.92V278.899H468.049V285.904ZM472.336 283.092H467.265V282.088H472.336V283.092ZM472.493 279.913H467.265V278.899H472.493V279.913ZM474.462 285.904H473.333V280.707H474.368V282.182L474.462 282.234V285.904ZM474.462 282.987H474.211V282.109H474.441C474.49 281.823 474.587 281.568 474.734 281.345C474.88 281.115 475.075 280.934 475.319 280.802C475.57 280.669 475.874 280.603 476.229 280.603C476.626 280.603 476.951 280.687 477.202 280.854C477.452 281.021 477.634 281.244 477.745 281.523C477.864 281.802 477.923 282.105 477.923 282.433V283.112H476.804V282.652C476.804 282.276 476.721 282.001 476.553 281.826C476.386 281.652 476.107 281.565 475.717 281.565C475.271 281.565 474.95 281.687 474.755 281.931C474.56 282.175 474.462 282.527 474.462 282.987ZM481.246 286.009C480.682 286.009 480.187 285.904 479.762 285.695C479.336 285.486 479.005 285.179 478.768 284.775C478.538 284.371 478.423 283.883 478.423 283.311C478.423 282.767 478.538 282.293 478.768 281.889C479.005 281.485 479.333 281.171 479.751 280.948C480.169 280.718 480.661 280.603 481.226 280.603C481.762 280.603 482.233 280.701 482.637 280.896C483.048 281.084 483.366 281.363 483.589 281.732C483.819 282.095 483.934 282.541 483.934 283.071C483.934 283.161 483.93 283.248 483.923 283.332C483.916 283.409 483.906 283.485 483.892 283.562H479.145V282.935H483.149L482.857 283.322C482.864 283.252 482.867 283.186 482.867 283.123C482.867 283.053 482.867 282.983 482.867 282.914C482.867 282.433 482.728 282.077 482.449 281.847C482.177 281.61 481.762 281.492 481.205 281.492C480.584 281.492 480.142 281.635 479.877 281.92C479.612 282.206 479.479 282.618 479.479 283.154V283.426C479.479 283.97 479.612 284.385 479.877 284.67C480.142 284.956 480.588 285.099 481.215 285.099C481.759 285.099 482.149 285.016 482.386 284.848C482.63 284.674 482.752 284.433 482.752 284.127V284.043H483.881V284.137C483.881 284.507 483.766 284.834 483.536 285.12C483.313 285.399 483.003 285.618 482.606 285.779C482.215 285.932 481.762 286.009 481.246 286.009ZM487.394 286.009C486.829 286.009 486.334 285.904 485.909 285.695C485.484 285.486 485.152 285.179 484.915 284.775C484.685 284.371 484.57 283.883 484.57 283.311C484.57 282.767 484.685 282.293 484.915 281.889C485.152 281.485 485.48 281.171 485.898 280.948C486.317 280.718 486.808 280.603 487.373 280.603C487.909 280.603 488.38 280.701 488.784 280.896C489.196 281.084 489.513 281.363 489.736 281.732C489.966 282.095 490.081 282.541 490.081 283.071C490.081 283.161 490.077 283.248 490.07 283.332C490.063 283.409 490.053 283.485 490.039 283.562H485.292V282.935H489.297L489.004 283.322C489.011 283.252 489.014 283.186 489.014 283.123C489.014 283.053 489.014 282.983 489.014 282.914C489.014 282.433 488.875 282.077 488.596 281.847C488.324 281.61 487.909 281.492 487.352 281.492C486.731 281.492 486.289 281.635 486.024 281.92C485.759 282.206 485.626 282.618 485.626 283.154V283.426C485.626 283.97 485.759 284.385 486.024 284.67C486.289 284.956 486.735 285.099 487.362 285.099C487.906 285.099 488.296 285.016 488.533 284.848C488.777 284.674 488.899 284.433 488.899 284.127V284.043H490.029V284.137C490.029 284.507 489.914 284.834 489.684 285.12C489.46 285.399 489.15 285.618 488.753 285.779C488.363 285.932 487.909 286.009 487.394 286.009ZM496.196 285.904H495.077V278.899H496.196V285.904ZM498.946 279.913H492.316V278.899H498.946V279.913ZM500.736 285.904H499.606V280.707H500.641V282.182L500.736 282.234V285.904ZM500.736 282.987H500.485V282.109H500.715C500.763 281.823 500.861 281.568 501.007 281.345C501.154 281.115 501.349 280.934 501.593 280.802C501.844 280.669 502.147 280.603 502.503 280.603C502.9 280.603 503.224 280.687 503.475 280.854C503.726 281.021 503.907 281.244 504.019 281.523C504.137 281.802 504.197 282.105 504.197 282.433V283.112H503.078V282.652C503.078 282.276 502.994 282.001 502.827 281.826C502.66 281.652 502.381 281.565 501.99 281.565C501.544 281.565 501.224 281.687 501.028 281.931C500.833 282.175 500.736 282.527 500.736 282.987ZM506.035 285.904H504.906V280.707H506.035V285.904ZM506.035 280.101H504.906V278.899H506.035V280.101ZM511.995 285.904H510.96V284.566L510.887 284.535V282.757C510.887 282.325 510.782 282.025 510.573 281.858C510.371 281.683 510.019 281.596 509.517 281.596C509.036 281.596 508.677 281.68 508.44 281.847C508.203 282.015 508.085 282.29 508.085 282.673V282.715H506.966V282.673C506.966 282.276 507.07 281.924 507.28 281.617C507.489 281.304 507.788 281.056 508.179 280.875C508.576 280.694 509.05 280.603 509.601 280.603C510.152 280.603 510.601 280.697 510.95 280.885C511.305 281.066 511.567 281.317 511.734 281.638C511.908 281.959 511.995 282.328 511.995 282.746V285.904ZM508.608 286.009C508.071 286.009 507.642 285.89 507.321 285.653C507.008 285.409 506.851 285.075 506.851 284.65C506.851 284.378 506.917 284.151 507.05 283.97C507.189 283.782 507.384 283.635 507.635 283.531C507.886 283.426 508.182 283.353 508.524 283.311L510.992 283.05V283.719L508.848 283.959C508.555 283.994 508.336 284.057 508.189 284.148C508.05 284.231 507.98 284.374 507.98 284.576C507.98 284.785 508.053 284.942 508.2 285.047C508.353 285.144 508.59 285.193 508.911 285.193C509.308 285.193 509.653 285.144 509.946 285.047C510.239 284.942 510.469 284.782 510.636 284.566C510.803 284.35 510.887 284.071 510.887 283.729L511.033 283.75V284.608H510.887C510.748 285.047 510.479 285.392 510.082 285.643C509.692 285.887 509.2 286.009 508.608 286.009ZM514.133 285.904H513.003V278.899H514.133V285.904Z" fill="black"/>
<path d="M59.7244 330.79L39.9047 341.328L33.5882 263.96L58.856 250.524L119.559 298.975L99.2698 309.763L65.0061 281.353L55.2293 272.936L54.0082 273.585L55.6128 286.347L59.7244 330.79ZM96.1765 296.467L49.774 321.14L41.3333 305.265L87.7358 280.593L96.1765 296.467Z" fill="black"/>
<defs>
<filter id="filter0_f_1_50" x="203.036" y="108.421" width="313.025" height="318.499" filterUnits="userSpaceOnUse" color-interpolation-filters="sRGB">
<feFlood flood-opacity="0" result="BackgroundImageFix"/>
<feBlend mode="normal" in="SourceGraphic" in2="BackgroundImageFix" result="shape"/>
<feGaussianBlur stdDeviation="65.3521" result="effect1_foregroundBlur_1_50"/>
</filter>
<clipPath id="clip0_1_50">
<rect width="15.6845" height="15.6845" fill="white" transform="translate(333.96 135.324) rotate(-28)"/>
</clipPath>
<clipPath id="clip1_1_50">
<rect width="15.6845" height="15.6845" fill="white" transform="translate(98.5344 260.502) rotate(-28)"/>
</clipPath>
</defs>
</svg>
