<svg width="117" height="34" viewBox="0 0 117 34" fill="none" xmlns="http://www.w3.org/2000/svg">
<path d="M108.83 14V11.4683H108.046V10.908H110.245V11.4683H109.473V14H108.83ZM110.564 14V10.908H111.186L112.344 12.4436H112.054L113.179 10.908H113.801V14H113.158V11.6177L113.415 11.6758L112.224 13.2114H112.141L110.991 11.6758L111.207 11.6177V14H110.564Z" fill="black"/>
<path d="M26.3829 10.8852C26.1564 10.6651 25.8387 10.5651 25.5277 10.6163C25.2162 10.6672 24.9472 10.8628 24.8027 11.1434C24.3057 12.1089 23.6745 12.9961 22.9318 13.7805C23.0058 13.2139 23.0431 12.6439 23.0431 12.0724C23.0431 10.9759 22.8961 9.84742 22.6061 8.71805C21.6527 5.00853 19.1525 1.87144 15.7468 0.111205C15.4503 -0.0419942 15.097 -0.0366153 14.8053 0.125549C14.5136 0.287779 14.3226 0.585213 14.2964 0.917908C14.0309 4.28895 12.2945 7.35586 9.52981 9.33424C9.49322 9.3606 9.4569 9.38729 9.42057 9.41386C9.34534 9.46891 9.27441 9.52097 9.20814 9.56467C9.19778 9.57157 9.18749 9.57861 9.17739 9.58585C7.43861 10.8308 6.00391 12.4903 5.0282 14.3854C4.03675 16.3131 3.53406 18.3818 3.53406 20.5337C3.53406 21.6299 3.68101 22.7583 3.97088 23.8879C5.50055 29.8417 10.8585 33.9999 17.0004 33.9999C24.4253 33.9999 30.4659 27.9589 30.4659 20.5337C30.4659 16.872 29.0159 13.4454 26.3829 10.8852V10.8852Z" fill="#FF5555"/>
<circle cx="16" cy="20" r="4" fill="white"/>
<path d="M42.584 29V11.12H54.824V14.36H46.304V18.896H53.624V22.136H46.304V29H42.584ZM56.4059 29V15.896H60.0059V29H56.4059ZM56.4059 14.72V11.12H60.0059V14.72H56.4059ZM62.6403 29V15.896H66.0003V18.488L65.8083 17.912C66.1123 17.128 66.6003 16.552 67.2723 16.184C67.9603 15.8 68.7603 15.608 69.6723 15.608C70.6643 15.608 71.5283 15.816 72.2643 16.232C73.0163 16.648 73.6003 17.232 74.0163 17.984C74.4323 18.72 74.6403 19.584 74.6403 20.576V29H71.0403V21.344C71.0403 20.832 70.9363 20.392 70.7283 20.024C70.5363 19.656 70.2563 19.368 69.8883 19.16C69.5363 18.952 69.1203 18.848 68.6403 18.848C68.1763 18.848 67.7603 18.952 67.3923 19.16C67.0243 19.368 66.7363 19.656 66.5283 20.024C66.3363 20.392 66.2403 20.832 66.2403 21.344V29H62.6403ZM83.4395 29.288C82.1275 29.288 80.9435 28.992 79.8875 28.4C78.8475 27.792 78.0155 26.968 77.3915 25.928C76.7835 24.888 76.4795 23.72 76.4795 22.424C76.4795 21.128 76.7835 19.968 77.3915 18.944C77.9995 17.904 78.8315 17.088 79.8875 16.496C80.9435 15.904 82.1275 15.608 83.4395 15.608C84.4155 15.608 85.3195 15.776 86.1515 16.112C86.9835 16.448 87.6955 16.92 88.2875 17.528C88.8795 18.12 89.3035 18.824 89.5595 19.64L86.4395 20.984C86.2155 20.328 85.8315 19.808 85.2875 19.424C84.7595 19.04 84.1435 18.848 83.4395 18.848C82.8155 18.848 82.2555 19 81.7595 19.304C81.2795 19.608 80.8955 20.032 80.6075 20.576C80.3355 21.12 80.1995 21.744 80.1995 22.448C80.1995 23.152 80.3355 23.776 80.6075 24.32C80.8955 24.864 81.2795 25.288 81.7595 25.592C82.2555 25.896 82.8155 26.048 83.4395 26.048C84.1595 26.048 84.7835 25.856 85.3115 25.472C85.8395 25.088 86.2155 24.568 86.4395 23.912L89.5595 25.28C89.3195 26.048 88.9035 26.736 88.3115 27.344C87.7195 27.952 87.0075 28.432 86.1755 28.784C85.3435 29.12 84.4315 29.288 83.4395 29.288ZM98.1834 29.288C96.8874 29.288 95.7034 28.992 94.6314 28.4C93.5754 27.808 92.7274 27 92.0874 25.976C91.4634 24.936 91.1514 23.76 91.1514 22.448C91.1514 21.12 91.4634 19.944 92.0874 18.92C92.7274 17.896 93.5754 17.088 94.6314 16.496C95.7034 15.904 96.8874 15.608 98.1834 15.608C99.4794 15.608 100.655 15.904 101.711 16.496C102.767 17.088 103.607 17.896 104.231 18.92C104.871 19.944 105.191 21.12 105.191 22.448C105.191 23.76 104.871 24.936 104.231 25.976C103.607 27 102.767 27.808 101.711 28.4C100.655 28.992 99.4794 29.288 98.1834 29.288ZM98.1834 26.048C98.8394 26.048 99.4074 25.896 99.8874 25.592C100.383 25.288 100.767 24.864 101.039 24.32C101.327 23.776 101.471 23.152 101.471 22.448C101.471 21.744 101.327 21.128 101.039 20.6C100.767 20.056 100.383 19.632 99.8874 19.328C99.4074 19.008 98.8394 18.848 98.1834 18.848C97.5274 18.848 96.9514 19.008 96.4554 19.328C95.9594 19.632 95.5674 20.056 95.2794 20.6C95.0074 21.128 94.8714 21.744 94.8714 22.448C94.8714 23.152 95.0074 23.776 95.2794 24.32C95.5674 24.864 95.9594 25.288 96.4554 25.592C96.9514 25.896 97.5274 26.048 98.1834 26.048Z" fill="black"/>
</svg>
