<svg width="300" height="225" viewBox="0 0 300 225" fill="none" xmlns="http://www.w3.org/2000/svg">
<path d="M133.741 166.456C187.082 219.797 220.337 283.094 231.002 342.292C238.485 383.827 234.844 423.32 219.243 455.952C186.611 471.553 147.118 475.194 105.583 467.711C46.3849 457.046 -16.9116 423.791 -70.2527 370.45C-123.594 317.109 -156.849 253.812 -167.514 194.614C-174.997 153.079 -171.356 113.586 -155.755 80.954C-123.123 65.3529 -83.6301 61.7124 -42.0946 69.1951C17.1031 79.8596 80.3996 113.115 133.741 166.456ZM105.405 468.695C146.621 476.12 185.91 472.645 218.546 457.388C215.328 463.931 211.622 470.192 207.422 476.131C171.613 501.456 124.109 508.813 73.5826 499.711C14.3849 489.046 -48.9116 455.791 -102.253 402.45C-155.594 349.109 -188.849 285.812 -199.514 226.614C-208.616 176.088 -201.259 128.584 -175.934 92.7754C-169.995 88.5752 -163.734 84.8692 -157.191 81.6506C-172.448 114.287 -175.923 153.576 -168.498 194.792C-157.793 254.214 -124.427 317.69 -70.9598 371.157C-17.4926 424.624 45.9831 457.99 105.405 468.695ZM209.859 474.366C213.663 468.74 217.04 462.842 219.993 456.702C226.133 453.749 232.031 450.372 237.657 446.568C233.766 451.816 229.477 456.8 224.784 461.493C220.091 466.186 215.107 470.475 209.859 474.366ZM-193.296 107.413C-188.603 102.72 -183.619 98.4309 -178.371 94.5403C-202.575 130.33 -209.438 177.165 -200.498 226.792C-189.793 286.214 -156.427 349.69 -102.96 403.157C-49.4926 456.624 13.9831 489.99 73.4054 500.695C123.032 509.635 169.867 502.772 205.657 478.568C201.766 483.816 197.477 488.8 192.784 493.493C155.833 530.445 100.783 542.376 41.5826 531.711C-17.6151 521.046 -80.9116 487.791 -134.253 434.45C-187.594 381.109 -220.849 317.812 -231.514 258.614C-242.179 199.414 -230.248 144.364 -193.296 107.413ZM-156.505 80.2038C-162.645 83.1574 -168.543 86.5336 -174.169 90.3382C-170.278 85.0902 -165.989 80.1056 -161.296 75.4128C-156.603 70.7201 -151.619 66.4309 -146.371 62.5403C-150.175 68.1659 -153.552 74.0644 -156.505 80.2038ZM-155.058 79.5176C-151.84 72.9749 -148.134 66.7143 -143.934 60.7754C-108.125 35.4503 -60.6214 28.0926 -10.0946 37.1951C49.1031 47.8596 112.4 81.1151 165.741 134.456C219.082 187.797 252.337 251.094 263.002 310.292C272.104 360.818 264.747 408.322 239.422 444.131C233.483 448.331 227.222 452.037 220.679 455.255C235.936 422.619 239.411 383.33 231.986 342.114C221.281 282.692 187.915 219.216 134.448 165.749C80.9806 112.282 17.5049 78.9159 -41.9173 68.2109C-83.1325 60.786 -122.422 64.2611 -155.058 79.5176ZM241.859 442.366C266.063 406.576 272.926 359.741 263.986 310.114C253.281 250.692 219.915 187.216 166.448 133.749C112.981 80.2819 49.5049 46.9159 -9.91734 36.2109C-59.544 27.2706 -106.379 34.1336 -142.169 58.3382C-138.278 53.0902 -133.989 48.1056 -129.296 43.4128C-92.3446 6.46129 -37.2946 -5.46986 21.9054 5.19507C81.1031 15.8596 144.4 49.1151 197.741 102.456C251.082 155.797 284.337 219.094 295.002 278.292C305.667 337.492 293.736 392.542 256.784 429.493C252.091 434.186 247.107 438.475 241.859 442.366Z" stroke="white"/>
</svg>
