<svg width="268" height="380" viewBox="0 0 268 380" fill="none" xmlns="http://www.w3.org/2000/svg">
<path d="M369.741 10.4563C423.082 63.7974 456.337 127.094 467.002 186.292C474.485 227.827 470.844 267.32 455.243 299.952C422.611 315.553 383.118 319.194 341.583 311.711C282.385 301.046 219.088 267.791 165.747 214.45C112.406 161.109 79.1506 97.8121 68.4861 38.6143C61.0034 -2.92114 64.644 -42.4138 80.245 -75.046C112.877 -90.6471 152.37 -94.2876 193.905 -86.8049C253.103 -76.1404 316.4 -42.8849 369.741 10.4563ZM341.405 312.695C382.621 320.12 421.91 316.645 454.546 301.388C451.328 307.931 447.622 314.192 443.422 320.131C407.613 345.456 360.109 352.813 309.583 343.711C250.385 333.046 187.088 299.791 133.747 246.45C80.4062 193.109 47.1506 129.812 36.4861 70.6143C27.3836 20.0876 34.7413 -27.4161 60.0664 -63.2246C66.0053 -67.4248 72.2659 -71.1308 78.8086 -74.3494C63.5521 -41.7132 60.077 -2.42355 67.5019 38.7916C78.2069 98.2139 111.573 161.69 165.04 215.157C218.507 268.624 281.983 301.99 341.405 312.695ZM445.859 318.366C449.663 312.74 453.04 306.842 455.993 300.702C462.133 297.749 468.031 294.372 473.657 290.568C469.766 295.816 465.477 300.8 460.784 305.493C456.091 310.186 451.107 314.475 445.859 318.366ZM42.7039 -48.5872C47.3966 -53.2799 52.3812 -57.5691 57.6292 -61.4597C33.4246 -25.67 26.5616 21.165 35.5019 70.7916C46.2069 130.214 79.5729 193.69 133.04 247.157C186.507 300.624 249.983 333.99 309.405 344.695C359.032 353.635 405.867 346.772 441.657 322.568C437.766 327.816 433.477 332.8 428.784 337.493C391.833 374.445 336.783 386.376 277.583 375.711C218.385 365.046 155.088 331.791 101.747 278.45C48.4062 225.109 15.1506 161.812 4.48609 102.614C-6.17884 43.4144 5.75231 -11.6356 42.7039 -48.5872ZM79.4948 -75.7962C73.3554 -72.8426 67.4569 -69.4664 61.8313 -65.6618C65.7219 -70.9098 70.0111 -75.8944 74.7039 -80.5872C79.3966 -85.2799 84.3812 -89.5691 89.6292 -93.4597C85.8246 -87.8341 82.4484 -81.9356 79.4948 -75.7962ZM80.9416 -76.4824C84.1602 -83.0251 87.8662 -89.2857 92.0664 -95.2246C127.875 -120.55 175.379 -127.907 225.905 -118.805C285.103 -108.14 348.4 -74.8849 401.741 -21.5437C455.082 31.7974 488.337 95.0939 499.002 154.292C508.104 204.818 500.747 252.322 475.422 288.131C469.483 292.331 463.222 296.037 456.679 299.255C471.936 266.619 475.411 227.33 467.986 186.114C457.281 126.692 423.915 63.2164 370.448 9.74916C316.981 -43.7181 253.505 -77.0841 194.083 -87.7891C152.867 -95.214 113.578 -91.7389 80.9416 -76.4824ZM477.859 286.366C502.063 250.576 508.926 203.741 499.986 154.114C489.281 94.6921 455.915 31.2164 402.448 -22.2508C348.981 -75.7181 285.505 -109.084 226.083 -119.789C176.456 -128.729 129.621 -121.866 93.8313 -97.6618C97.7219 -102.91 102.011 -107.894 106.704 -112.587C143.655 -149.539 198.705 -161.47 257.905 -150.805C317.103 -140.14 380.4 -106.885 433.741 -53.5437C487.082 -0.202606 520.337 63.0939 531.002 122.292C541.667 181.492 529.736 236.542 492.784 273.493C488.091 278.186 483.107 282.475 477.859 286.366Z" stroke="white"/>
</svg>
